<svg version="1.1" id="Layer_1" xmlns="http://www.w3.org/2000/svg" xmlns:xlink="http://www.w3.org/1999/xlink" x="0px" y="0px"
	 width="100%" viewBox="0 0 2111 495" enable-background="new 0 0 2111 495" xml:space="preserve">
<path fill="#FFFFFF" opacity="1.000000" stroke="none" 
	d="
M2112.000000,388.000000 
	C2112.000000,400.359161 2112.000000,412.718323 2111.532471,425.538757 
	C2106.135254,426.000000 2101.205811,426.000000 2096.302734,426.000000 
	C2096.302734,430.298645 2096.302734,434.024750 2096.302734,438.000000 
	C2101.735596,438.000000 2106.867920,438.000000 2112.000000,438.000000 
	C2112.000000,457.329132 2112.000000,476.658295 2112.000000,495.993713 
	C1481.307495,496.000000 850.614990,496.000000 219.664337,495.615112 
	C240.795212,494.849670 262.184265,494.469086 283.772003,494.084961 
	C285.555664,479.991943 287.162537,466.366333 289.143158,452.795227 
	C289.397491,451.052673 291.316132,448.611359 292.933350,448.153900 
	C310.746155,443.115662 327.645416,436.104156 343.380615,426.280151 
	C344.654694,425.484711 347.280609,425.402344 348.489197,426.193756 
	C355.443420,430.747192 362.156738,435.668152 368.957642,440.456116 
	C373.683258,443.783051 378.418396,447.096405 382.916321,450.252380 
	C390.809723,441.778137 397.995453,433.793304 405.509308,426.130157 
	C408.509033,423.070801 408.734619,420.934479 405.535461,417.941956 
	C392.218933,405.485565 378.991150,392.932831 365.836395,380.305481 
	C353.609924,368.569214 341.508209,356.702789 329.371338,344.873383 
	C325.522125,341.121704 323.735687,341.003754 319.861633,344.650360 
	C309.406738,354.491516 297.637268,362.306091 284.410065,367.923737 
	C262.780670,377.109802 240.250305,380.173157 217.231400,375.795135 
	C193.562653,371.293518 173.324173,359.401672 155.762939,343.144562 
	C143.925629,332.186340 135.896347,318.585419 129.857101,303.640289 
	C121.268448,282.386292 118.499741,260.349670 122.275780,237.964920 
	C126.021645,215.759018 134.984116,195.556625 150.573929,178.716080 
	C151.348679,177.879166 151.113510,174.946365 150.245575,173.969696 
	C147.747177,171.158279 144.596130,168.940704 141.856918,166.326920 
	C132.729538,157.617554 123.639076,148.868927 114.591934,140.076202 
	C100.526558,126.406357 86.480415,112.716385 72.493462,98.966454 
	C69.652168,96.173317 67.180084,96.156876 64.469101,99.025642 
	C57.749634,106.136185 50.975021,113.194611 44.226227,120.277466 
	C43.103004,121.456299 41.998264,122.652733 40.772930,123.960632 
	C42.304325,125.958748 43.661556,127.788223 45.079311,129.569534 
	C52.016613,138.285706 58.979877,146.981247 65.911476,155.701950 
	C67.866585,158.161697 68.556976,160.564438 66.774277,163.702560 
	C57.623013,179.811707 51.626694,197.165375 46.821381,214.991608 
	C46.484009,216.243149 44.582340,217.604538 43.175838,217.939438 
	C38.433132,219.068665 33.608143,219.924301 28.773239,220.578934 
	C19.530537,221.830399 10.259360,222.871567 1.000000,224.000000 
	C1.000000,149.733841 1.000000,75.467690 1.000000,1.000000 
	C82.359055,1.000000 163.718277,1.000000 245.341370,1.381246 
	C238.921204,2.507360 232.123306,2.716166 225.576355,4.106610 
	C211.117325,7.177426 196.494202,9.948262 182.475525,14.497722 
	C165.768692,19.919563 149.798996,27.378605 134.707520,36.624172 
	C116.013092,48.077045 98.916153,61.279503 84.948410,78.367203 
	C82.628082,81.205818 82.889923,82.631294 85.287209,84.849678 
	C95.981651,94.745987 106.625183,104.698509 117.200066,114.722542 
	C131.764862,128.528641 146.248230,142.420639 160.772125,156.269897 
	C174.934341,169.774277 189.106522,183.268188 203.269058,196.772217 
	C217.793320,210.621140 232.308624,224.479446 246.832565,238.328705 
	C260.994751,251.833069 275.164886,265.329132 289.327881,278.832672 
	C303.731995,292.566132 318.130341,306.305695 332.533691,320.039978 
	C346.816498,333.659302 361.106842,347.270721 375.385773,360.894135 
	C390.267212,375.092407 405.167572,389.271057 419.989380,403.531342 
	C422.750427,406.187775 425.169006,406.915619 427.890076,403.624359 
	C437.614410,391.862488 447.980499,380.572357 456.964233,368.271484 
	C469.037567,351.740143 477.551666,333.215759 484.103699,313.795563 
	C489.921997,296.550171 494.022308,278.777191 494.670837,260.745819 
	C495.395325,240.602020 494.417542,220.299576 492.656097,200.199783 
	C491.571655,187.825211 488.267365,175.520172 484.837677,163.504211 
	C479.080109,143.332672 470.315765,124.405190 457.839081,107.421379 
	C451.736877,99.114754 445.567902,90.757507 438.546265,83.248772 
	C427.311127,71.234222 416.110596,58.977962 403.488525,48.522293 
	C387.387787,35.184978 368.838654,25.407982 349.309296,17.705378 
	C331.376862,10.632621 313.002197,5.270300 293.801117,2.956218 
	C290.174835,2.519184 286.599060,1.662853 283.000000,0.999999 
	C892.666687,1.000000 1502.333374,1.000000 2112.000000,1.000000 
	C2112.000000,51.432243 2112.000000,101.754868 2111.627441,152.391693 
	C2110.505859,148.232864 2109.861816,143.739197 2108.989746,139.290268 
	C2104.576660,116.781174 2093.426758,106.690453 2072.058105,104.267570 
	C2052.855225,102.090256 2033.742798,104.359436 2015.959717,113.037811 
	C2012.627808,114.663780 2010.757812,114.121231 2011.049683,110.191521 
	C2011.340088,106.278885 2009.202148,105.944382 2006.117676,105.959389 
	C1988.787842,106.043732 1971.457153,105.995659 1954.126831,106.009026 
	C1952.849609,106.010010 1951.572388,106.138939 1950.295898,106.208344 
	C1950.295898,153.608749 1950.295898,200.666962 1950.295898,247.678558 
	C1971.988525,247.678558 1993.383789,247.678558 2014.999390,247.678558 
	C2014.999390,246.542694 2014.999390,245.727921 2014.999390,244.913147 
	C2014.999634,217.751099 2015.069092,190.588654 2014.907959,163.427567 
	C2014.888794,160.202133 2015.755493,157.807251 2018.361816,156.347046 
	C2021.304321,154.698532 2024.403809,153.100189 2027.637207,152.242264 
	C2039.393921,149.122940 2045.999878,154.359879 2046.000000,166.472412 
	C2046.000122,191.801437 2046.000000,217.130447 2046.000000,242.459473 
	C2046.000000,244.223831 2046.000000,245.988190 2046.000000,247.871490 
	C2067.906006,247.871490 2089.201660,247.871490 2110.411621,247.871490 
	C2110.974121,246.500534 2111.487061,245.250275 2112.000000,244.000000 
	C2112.000000,273.359161 2112.000000,302.718323 2111.616943,332.379089 
	C2110.574463,332.123352 2109.932861,331.110291 2109.252686,331.083771 
	C2105.310303,330.930054 2101.358398,331.008667 2097.477295,331.008667 
	C2096.182129,341.526825 2097.051758,402.968781 2098.563965,411.698425 
	C2102.297363,411.693787 2106.026855,411.693787 2110.000000,411.693787 
	C2110.000000,405.090057 2109.873779,398.786163 2110.091309,392.494171 
	C2110.143799,390.975983 2111.333496,389.497040 2112.000000,388.000000 
M750.500000,104.000000 
	C767.921570,104.000000 785.343079,104.000000 802.664917,104.000000 
	C802.664917,87.645752 802.664917,71.918602 802.664917,56.343292 
	C752.945740,56.343292 703.562317,56.343292 654.345337,56.343292 
	C654.345337,120.399612 654.345337,184.112167 654.345337,247.634491 
	C676.084656,247.634491 697.477112,247.634491 719.316895,247.634491 
	C719.316895,223.543991 719.316895,199.817322 719.316895,175.823120 
	C743.709778,175.823120 767.649841,175.823120 791.750244,175.823120 
	C791.750244,159.819168 791.750244,144.093262 791.750244,127.915321 
	C767.444519,127.915321 743.384033,127.915321 719.294922,127.915321 
	C719.294922,119.729675 719.294922,112.000526 719.294922,104.000000 
	C729.558594,104.000000 739.529297,104.000000 750.500000,104.000000 
M1043.177979,114.932983 
	C1042.138916,112.077934 1041.099976,109.222878 1040.050293,106.338493 
	C1020.308655,106.338493 1000.247253,106.338493 980.348877,106.338493 
	C980.348877,153.729309 980.348877,200.780930 980.348877,247.630356 
	C1002.092285,247.630356 1023.485291,247.630356 1045.000000,247.630356 
	C1045.000000,219.276718 1044.961548,191.292358 1045.084717,163.308716 
	C1045.093018,161.395447 1045.746338,158.718903 1047.084106,157.732437 
	C1050.147949,155.473297 1053.650635,153.481934 1057.278198,152.374603 
	C1069.282837,148.710205 1076.000000,153.884949 1076.000000,166.356049 
	C1076.000000,191.679733 1076.000000,217.003418 1076.000000,242.327103 
	C1076.000000,244.103882 1076.000000,245.880661 1076.000000,247.721069 
	C1097.908936,247.721069 1119.300415,247.721069 1141.000000,247.721069 
	C1141.000000,245.641922 1141.000000,243.838501 1141.000000,242.035080 
	C1141.000000,216.044983 1141.168335,190.053192 1140.908081,164.065704 
	C1140.817749,155.054474 1140.100830,145.995560 1138.905396,137.060730 
	C1136.499512,119.079010 1119.518799,104.185013 1101.420166,104.070885 
	C1091.505127,104.008362 1081.380127,103.547226 1071.725952,105.317421 
	C1062.202515,107.063667 1053.153564,111.397179 1043.177979,114.932983 
M874.502319,156.000000 
	C868.080505,156.333084 861.594849,156.213638 855.252319,157.108841 
	C846.462891,158.349365 837.459290,159.412415 829.133118,162.262604 
	C818.251404,165.987534 810.443054,173.900177 806.511597,185.010147 
	C803.254761,194.213943 802.323303,203.543839 803.846130,213.385513 
	C805.737488,225.608963 811.289429,235.186859 821.422974,242.029922 
	C836.377686,252.128616 853.234253,251.281403 869.955933,249.411194 
	C880.582947,248.222641 890.661743,244.636307 899.465149,237.523026 
	C899.873718,239.388138 900.301575,240.611908 900.387024,241.859146 
	C900.740356,247.013870 903.342651,248.376617 908.437500,248.143829 
	C918.908569,247.665359 929.416809,248.000000 939.909790,248.000000 
	C946.176331,248.000000 952.442871,248.000000 959.000000,248.000000 
	C959.000000,224.477921 959.204163,201.519272 958.909485,178.567032 
	C958.772461,167.890503 958.265198,157.145554 956.837158,146.578720 
	C955.317017,135.330048 949.407166,125.830635 940.288696,119.210052 
	C925.814026,108.700447 909.154602,104.044174 891.317261,104.059563 
	C880.566284,104.068840 869.714600,103.867836 859.092285,105.213791 
	C847.413147,106.693649 835.914612,109.710861 824.424438,112.426544 
	C823.008728,112.761139 821.190918,115.338120 821.150818,116.916405 
	C820.867493,128.063568 821.000305,139.221298 821.000305,150.616287 
	C826.020264,149.376389 830.778625,147.838562 835.658142,147.076004 
	C844.197571,145.741547 852.848694,145.118103 861.384521,143.764709 
	C871.634705,142.139481 881.572388,142.988358 891.182434,146.748230 
	C895.029541,148.253403 897.438599,151.156418 896.761047,156.000000 
	C889.467224,156.000000 882.484314,156.000000 874.502319,156.000000 
M1296.567993,127.047997 
	C1283.432007,111.487450 1265.348755,105.789055 1246.297363,104.284485 
	C1222.655518,102.417419 1198.975586,104.064919 1176.058960,111.150826 
	C1173.460205,111.954384 1169.409912,114.218231 1169.317627,115.977386 
	C1168.710205,127.548676 1169.004272,139.167282 1169.004272,150.895004 
	C1188.157593,145.763260 1207.162354,141.313339 1229.818481,144.052475 
	C1239.150146,145.180679 1245.690796,148.105743 1245.774048,156.999954 
	C1231.544434,156.999954 1217.302612,156.552856 1203.107910,157.178665 
	C1195.403076,157.518341 1187.469238,158.767792 1180.185669,161.226852 
	C1167.130981,165.634338 1157.202148,174.116333 1154.082153,188.231537 
	C1152.613037,194.878342 1152.187622,201.850845 1152.090332,208.687180 
	C1151.844482,225.949509 1162.736938,241.565002 1179.903076,247.046341 
	C1189.299927,250.046844 1198.829346,251.287872 1208.662598,250.020096 
	C1213.847412,249.351669 1219.284424,249.642120 1224.207520,248.165802 
	C1232.316406,245.734070 1240.100708,242.219650 1248.128906,239.120361 
	C1248.801392,241.546951 1249.688721,244.748474 1250.521973,247.755035 
	C1269.416260,247.755035 1288.020874,247.755035 1307.000000,247.755035 
	C1307.000000,245.720016 1307.000000,243.924744 1307.000000,242.129486 
	C1307.000000,215.465012 1306.978394,188.800507 1307.009521,162.136078 
	C1307.024170,149.645157 1304.452637,137.927780 1296.567993,127.047997 
M1824.354004,156.999954 
	C1818.852173,157.667999 1813.232788,157.839447 1807.873169,159.108414 
	C1796.994507,161.684097 1787.506714,166.783478 1780.949463,176.310791 
	C1772.081299,189.195984 1771.346558,203.380219 1774.561157,218.045593 
	C1777.606323,231.938889 1786.008545,241.122986 1799.410400,246.227478 
	C1809.048340,249.898376 1818.745117,250.403320 1828.911499,250.188354 
	C1843.456421,249.880814 1856.671997,246.176590 1868.763550,238.271286 
	C1869.204712,238.780975 1869.711670,239.104477 1869.817993,239.528473 
	C1871.940918,247.997681 1871.931641,248.000000 1880.282104,248.000000 
	C1881.114868,248.000000 1881.947632,248.000000 1882.780396,248.000000 
	C1897.720337,248.000000 1912.660278,248.000000 1928.000000,248.000000 
	C1928.000000,245.929276 1928.000000,244.299805 1928.000000,242.670319 
	C1928.000000,216.687988 1928.053833,190.705475 1927.954712,164.723511 
	C1927.934692,159.471970 1927.567993,154.195709 1926.960083,148.977524 
	C1925.378540,135.398697 1918.522461,124.670036 1907.366577,117.257385 
	C1893.661133,108.150810 1878.056641,104.257545 1861.686279,104.085091 
	C1850.773682,103.970139 1839.836914,104.405273 1828.939697,105.068138 
	C1816.409790,105.830322 1804.235474,108.617767 1792.482910,113.065468 
	C1791.486694,113.442444 1790.132935,114.707535 1790.121216,115.575768 
	C1789.964355,127.313362 1790.015869,139.053741 1790.015869,150.956482 
	C1794.000366,149.867325 1797.361084,148.612915 1800.833252,148.063843 
	C1810.481201,146.538116 1820.240601,145.654404 1829.833618,143.861786 
	C1839.950073,141.971329 1849.694702,143.182358 1859.323120,146.055115 
	C1865.018921,147.754532 1867.012207,150.843307 1866.472656,156.000000 
	C1864.354126,156.000000 1862.200195,155.949814 1860.049072,156.008377 
	C1848.463501,156.323761 1836.878784,156.666168 1824.354004,156.999954 
M1527.375488,157.919662 
	C1525.125854,158.281479 1522.846802,158.515457 1520.631348,159.025879 
	C1506.226074,162.344650 1494.602417,169.498947 1488.842407,183.728592 
	C1484.921997,193.413391 1484.287354,203.481689 1485.840820,213.988327 
	C1488.062378,229.015610 1495.897949,239.670471 1509.403320,245.579330 
	C1524.688354,252.266846 1540.981567,251.819931 1556.887451,248.342545 
	C1565.505859,246.458344 1573.607788,242.211136 1581.893799,239.048538 
	C1581.908813,239.241272 1581.954590,240.228241 1582.068115,241.207352 
	C1582.702881,246.683395 1585.398193,248.406998 1591.184448,248.187439 
	C1605.992798,247.625534 1620.836426,248.007019 1635.666016,247.988617 
	C1637.085205,247.986862 1638.504028,247.826767 1639.999878,247.735474 
	C1639.999878,215.920898 1640.327393,184.593048 1639.823608,153.278564 
	C1639.645386,142.200897 1635.290771,131.926804 1627.312744,123.928650 
	C1613.980957,110.563179 1596.761597,105.609016 1578.707275,104.239189 
	C1566.547485,103.316597 1554.127808,103.868004 1541.984619,105.210220 
	C1528.880737,106.658615 1515.963623,109.796394 1503.113037,112.169861 
	C1503.113037,125.893211 1503.113037,138.206070 1503.113037,150.612656 
	C1505.064819,150.060318 1506.903198,149.335693 1508.808594,149.034515 
	C1519.894043,147.282150 1531.040771,145.879211 1542.078003,143.870499 
	C1552.515015,141.971008 1562.633423,143.087219 1572.507935,146.337128 
	C1576.500610,147.651199 1579.417847,150.698029 1578.908691,155.372284 
	C1561.852661,156.049805 1544.979248,156.720078 1527.375488,157.919662 
M1412.499390,248.000000 
	C1417.832153,247.999969 1423.187134,248.275162 1428.485474,247.847946 
	C1430.296631,247.701920 1432.849487,246.186523 1433.544922,244.621780 
	C1436.358765,238.290894 1438.493286,231.662491 1441.036621,225.206131 
	C1451.335327,199.061188 1461.691895,172.938995 1472.028931,146.809189 
	C1477.358032,133.338379 1482.691528,119.869331 1488.109741,106.180412 
	C1465.211548,106.180412 1442.749268,106.180412 1420.451172,106.180412 
	C1413.401001,129.230896 1406.415405,152.070694 1399.429688,174.910477 
	C1398.902832,175.074768 1398.375977,175.239059 1397.849243,175.403351 
	C1390.241211,152.519333 1383.975464,129.187866 1376.567505,106.235260 
	C1354.389771,106.235260 1332.282715,106.235260 1309.669922,106.235260 
	C1310.159668,107.950714 1310.438110,109.357895 1310.956055,110.670609 
	C1314.929321,120.742645 1318.979370,130.784363 1322.948975,140.857849 
	C1336.504517,175.257339 1350.143921,209.624786 1363.416748,244.133209 
	C1364.788696,247.700470 1366.462769,248.060242 1369.504395,248.040344 
	C1383.502319,247.948776 1397.501221,248.000000 1412.499390,248.000000 
M1662.000000,221.500000 
	C1662.000000,230.261597 1662.000000,239.023209 1662.000000,247.654327 
	C1684.035889,247.654327 1705.432251,247.654327 1727.062500,247.654327 
	C1727.062500,218.008240 1727.062500,188.706924 1727.062500,158.215744 
	C1742.617798,155.729019 1758.127563,153.249588 1773.673340,150.764374 
	C1773.673340,135.663162 1773.673340,119.931343 1773.673340,104.094658 
	C1756.647095,103.055458 1741.490845,108.776070 1726.541870,115.317146 
	C1725.796021,111.818573 1725.169312,108.878754 1724.618530,106.295334 
	C1703.464233,106.295334 1682.868042,106.295334 1662.000000,106.295334 
	C1662.000000,144.559998 1662.000000,182.529999 1662.000000,221.500000 
M702.431458,331.000000 
	C686.353699,331.000000 670.275879,331.000000 654.329102,331.000000 
	C654.329102,367.038727 654.329102,402.415955 654.329102,436.997162 
	C674.718994,436.997162 694.808044,437.672150 714.818909,436.714630 
	C724.940002,436.230286 732.960083,430.627747 736.156128,419.769348 
	C738.247192,412.664917 738.412842,405.773529 737.098145,398.543365 
	C735.530823,389.923920 730.070251,385.383667 722.574829,382.546021 
	C732.779297,374.812225 734.881653,367.011475 733.843018,354.813965 
	C732.999268,344.904846 728.419312,336.604492 718.299438,333.278870 
	C713.593689,331.732391 708.386292,331.712128 702.431458,331.000000 
M1836.440918,465.001190 
	C1839.569824,464.217407 1842.816650,463.740112 1845.805298,462.591492 
	C1854.245361,459.347748 1857.189209,452.035034 1856.906128,444.285217 
	C1856.587646,435.570374 1851.397339,429.391449 1842.815674,428.146057 
	C1835.513794,427.086395 1828.020630,427.368439 1820.615601,426.987640 
	C1815.371094,426.717957 1810.089966,426.634491 1804.904541,425.904938 
	C1800.666016,425.308594 1799.467407,421.395630 1802.293579,418.226776 
	C1805.227051,414.937317 1808.709106,412.787170 1813.430420,412.953033 
	C1819.088257,413.151764 1824.786011,413.352417 1830.416992,412.914673 
	C1838.236816,412.306763 1845.562622,410.038605 1849.987915,402.832947 
	C1856.870605,391.625610 1857.249390,380.349152 1849.251465,368.793884 
	C1853.686401,368.793884 1857.750000,368.793884 1861.648804,368.793884 
	C1861.648804,365.286987 1861.648804,362.222809 1861.648804,358.000275 
	C1844.225830,358.000275 1827.131226,357.804138 1810.043823,358.071808 
	C1799.320557,358.239777 1788.772095,365.741760 1787.104980,374.453003 
	C1784.648682,387.286835 1784.134644,399.863037 1796.876587,408.555115 
	C1795.705322,409.140289 1794.802734,409.515564 1793.976440,410.016541 
	C1789.374023,412.806763 1785.251831,420.584106 1786.035522,424.921722 
	C1787.241577,431.597870 1790.785034,436.299835 1797.610962,437.765442 
	C1801.111206,438.516968 1804.747803,438.878326 1808.331665,438.946564 
	C1816.992676,439.111481 1825.660034,438.911194 1834.322144,439.042297 
	C1838.081787,439.099213 1841.191284,440.913971 1841.889526,444.748444 
	C1842.651245,448.931488 1841.002808,452.334778 1836.312622,452.961121 
	C1830.007935,453.802979 1823.602417,455.182343 1817.342896,454.770569 
	C1807.586670,454.128876 1797.916626,452.175751 1788.000000,450.748108 
	C1788.000000,452.016479 1788.002197,453.503967 1787.999634,454.991455 
	C1787.987549,462.207275 1787.893311,463.074493 1795.301880,463.875824 
	C1807.727051,465.219788 1820.284058,465.357422 1832.789307,465.919800 
	C1833.693481,465.960480 1834.627808,465.328918 1836.440918,465.001190 
M1704.998779,353.541626 
	C1694.429321,381.449341 1683.859985,409.357086 1673.012207,437.999786 
	C1677.903320,437.999786 1681.429443,438.339020 1684.839233,437.856567 
	C1686.542480,437.615540 1688.854492,436.222961 1689.481567,434.750793 
	C1692.576782,427.485046 1695.334839,420.064819 1697.914917,412.596497 
	C1698.776855,410.101318 1699.707031,408.899414 1702.581909,408.933258 
	C1715.568359,409.086243 1728.558960,408.912170 1741.543701,409.121216 
	C1743.021973,409.145020 1745.276123,410.509094 1745.804443,411.807556 
	C1748.781006,419.122314 1751.197021,426.664734 1754.151611,433.989380 
	C1754.807251,435.614655 1756.723022,437.579865 1758.295654,437.817383 
	C1762.018799,438.379639 1765.884399,437.998047 1770.843262,437.998047 
	C1757.209106,401.959595 1743.835205,366.608948 1730.410522,331.124329 
	C1724.851074,331.124329 1719.214722,331.124329 1713.767700,331.124329 
	C1710.822510,338.430725 1707.937988,345.586670 1704.998779,353.541626 
M929.461914,394.910553 
	C936.538269,397.428650 939.469116,403.009674 939.917053,409.958832 
	C940.318298,416.182343 935.954895,422.163971 929.002319,424.335571 
	C924.097351,425.867645 918.730652,427.161102 913.699158,426.793671 
	C902.761719,425.994904 891.906799,424.065216 881.142578,422.614594 
	C881.142578,425.912140 881.142578,430.221619 881.142578,434.719330 
	C898.010559,439.641876 914.911804,440.722931 932.090881,437.018585 
	C954.278992,432.234161 959.935364,406.920074 948.524292,392.038330 
	C942.573547,384.277802 933.706299,381.693512 924.906067,378.974609 
	C916.760925,376.458099 908.519470,374.137451 900.621948,370.977051 
	C895.483582,368.920776 892.589050,364.723236 892.896973,358.527985 
	C893.189331,352.646057 895.243652,348.425079 900.654236,345.723663 
	C910.086121,341.014343 920.046936,341.442017 930.001160,342.571655 
	C935.899414,343.241028 941.697021,344.798218 947.784668,346.004730 
	C947.784668,341.679962 947.784668,337.568848 947.784668,333.355927 
	C934.340332,330.017914 920.846985,327.993225 907.079895,330.047424 
	C898.018738,331.399414 889.318481,333.796021 883.597168,341.898071 
	C874.075745,355.381531 876.056519,376.763916 895.167664,383.862000 
	C906.188965,387.955414 917.632507,390.911743 929.461914,394.910553 
M1923.073608,375.494080 
	C1924.362915,380.396149 1925.652344,385.298187 1927.152100,391.000000 
	C1915.531860,391.000000 1905.398438,391.400787 1895.309326,390.903961 
	C1880.974731,390.198059 1867.241455,400.317505 1868.850952,417.102142 
	C1869.706909,426.026978 1874.817383,434.461639 1883.585571,436.930176 
	C1898.544189,441.141510 1912.884399,440.188263 1926.346436,429.950745 
	C1926.716797,432.742981 1927.043823,435.207886 1927.377686,437.725342 
	C1931.543945,437.725342 1935.616577,437.725342 1939.003784,437.725342 
	C1939.003784,418.565613 1939.409912,399.674469 1938.859741,380.811218 
	C1938.498413,368.418915 1932.033691,361.922485 1920.506714,358.918823 
	C1906.041504,355.149506 1892.132202,357.669281 1878.283447,361.216431 
	C1878.283447,365.658417 1878.283447,369.727570 1878.283447,374.274109 
	C1889.521240,369.167755 1901.099243,369.619812 1912.539673,370.216949 
	C1916.079956,370.401733 1919.486938,373.141724 1923.073608,375.494080 
M819.670593,434.755707 
	C819.670593,430.997650 819.670593,427.239594 819.670593,423.375519 
	C808.297607,427.626190 796.661987,427.952728 784.805664,426.035858 
	C774.843628,424.425201 767.748291,415.635681 768.441589,404.900574 
	C787.162598,404.900574 805.916504,404.900574 824.998840,404.900574 
	C824.998840,397.507751 825.501648,390.494812 824.876221,383.584015 
	C824.025269,374.181091 817.612549,363.290527 806.619629,359.835449 
	C798.833557,357.388306 791.265503,356.838928 783.083435,357.792664 
	C768.386230,359.505798 759.784851,367.652710 755.518616,381.049591 
	C752.488770,390.563721 752.316833,400.490509 754.222717,410.178467 
	C756.485596,421.681610 761.918701,431.805573 773.716309,435.699310 
	C788.627014,440.620483 803.889526,440.987640 819.670593,434.755707 
M1213.055786,393.846008 
	C1213.371094,398.768524 1213.239990,403.770294 1214.097290,408.596588 
	C1215.744141,417.869324 1218.759521,426.579163 1227.325317,432.051117 
	C1241.478882,441.092621 1256.869629,440.348572 1272.289062,437.124634 
	C1280.160889,435.478790 1280.024536,434.828613 1280.000488,426.791901 
	C1279.997192,425.688416 1280.000000,424.584900 1280.000000,423.253479 
	C1268.286499,427.648254 1256.646606,427.924164 1244.798462,426.032135 
	C1234.845337,424.442657 1227.742798,415.621185 1228.443481,404.903229 
	C1247.161743,404.903229 1265.912842,404.903229 1284.997314,404.903229 
	C1284.997314,397.349304 1285.930176,390.063171 1284.780762,383.121796 
	C1283.013550,372.448730 1277.900513,363.784546 1266.632568,359.812988 
	C1257.826904,356.709259 1249.054688,356.330231 1240.124878,358.086761 
	C1229.957031,360.086823 1221.847412,365.301331 1218.074463,375.313141 
	C1215.935181,380.990021 1214.966797,387.108063 1213.055786,393.846008 
M1042.989746,360.744568 
	C1042.381226,360.166290 1041.791382,359.111969 1041.161377,359.087372 
	C1037.222778,358.933594 1033.275391,359.009705 1029.000000,359.009705 
	C1029.000000,361.137054 1029.000000,362.772369 1029.000000,364.407654 
	C1029.000000,380.897522 1029.052734,397.387787 1028.923950,413.876678 
	C1028.910034,415.659821 1028.387939,418.056274 1027.179077,419.112823 
	C1019.189941,426.095398 1009.550232,428.173798 999.303528,426.888397 
	C990.490845,425.782898 986.005676,420.027954 986.001831,411.045532 
	C985.995117,395.221924 986.006226,379.398315 985.989380,363.574707 
	C985.987793,362.135681 985.837524,360.696747 985.759705,359.318665 
	C980.681396,359.318665 975.952454,359.318665 971.001892,359.318665 
	C971.001892,377.606140 970.553711,395.592133 971.201721,413.538574 
	C971.500427,421.812897 974.266174,429.768372 982.145447,434.705414 
	C990.653564,440.036560 999.987061,440.136322 1009.140747,438.172516 
	C1016.237427,436.650055 1022.944763,433.313171 1030.026611,430.708740 
	C1030.026611,432.731506 1030.026611,435.154297 1030.026611,437.765808 
	C1034.463135,437.765808 1038.533325,437.765808 1042.999146,437.765808 
	C1042.999146,412.257294 1042.999146,386.980988 1042.989746,360.744568 
M2006.756714,437.900604 
	C2011.040405,437.900604 2015.324097,437.900604 2020.000000,437.900604 
	C2020.000000,435.929291 2020.000000,434.298706 2020.000000,432.668091 
	C2020.000000,416.171051 2019.900269,399.672699 2020.121338,383.178619 
	C2020.150269,381.026825 2021.260010,378.248474 2022.837891,376.866669 
	C2030.673218,370.004639 2040.216064,368.071503 2050.255615,369.250946 
	C2056.064209,369.933380 2061.320557,372.522156 2062.872070,378.970001 
	C2063.667480,382.276062 2063.926270,385.775665 2063.951904,389.191345 
	C2064.063477,404.021149 2063.992920,418.852325 2064.010986,433.682983 
	C2064.012695,435.099762 2064.173096,436.516357 2064.249268,437.764679 
	C2069.052734,437.764679 2073.332764,437.764679 2077.997559,437.764679 
	C2077.997559,418.076477 2078.196777,398.617157 2077.827393,379.168640 
	C2077.754639,375.341522 2076.019043,371.265747 2074.129150,367.808197 
	C2069.263672,358.906799 2060.183105,357.674347 2051.417480,357.133026 
	C2040.276123,356.445007 2029.932861,359.717255 2020.311401,366.428925 
	C2019.596680,363.670685 2019.009277,361.403687 2018.482910,359.372498 
	C2014.243774,359.372498 2010.178833,359.372498 2006.093384,359.372498 
	C2006.093384,385.567047 2006.093384,411.389191 2006.756714,437.900604 
M1573.905762,359.786255 
	C1569.408691,359.426910 1564.911621,359.067566 1560.000000,358.675110 
	C1560.000000,361.117218 1560.000000,362.746094 1560.000000,364.374969 
	C1560.000000,380.869293 1560.083862,397.364624 1559.891846,413.856689 
	C1559.868408,415.874390 1558.942383,418.733124 1557.449707,419.735596 
	C1550.791992,424.207184 1543.674683,426.962372 1535.215820,427.221130 
	C1522.094116,427.622498 1516.044556,419.601990 1516.010376,407.870392 
	C1515.967163,393.042267 1516.006958,378.213959 1515.988770,363.385712 
	C1515.987061,361.961456 1515.828491,360.537384 1515.748535,359.209839 
	C1510.999268,359.209839 1506.718628,359.209839 1502.354126,359.209839 
	C1502.212769,359.851807 1502.023193,360.312256 1502.022705,360.772919 
	C1502.004395,378.433502 1501.727539,396.101288 1502.186768,413.749847 
	C1502.307373,418.383728 1503.911133,423.416901 1506.223877,427.474304 
	C1513.382446,440.032806 1525.707764,440.367218 1538.810181,438.387878 
	C1546.080200,437.289612 1552.969849,433.674561 1559.991089,431.207855 
	C1560.388062,432.962494 1560.946777,435.431610 1561.479980,437.787415 
	C1565.680176,437.787415 1569.624146,437.787415 1573.989746,437.787415 
	C1573.989746,411.966431 1573.989746,386.355530 1573.905762,359.786255 
M1315.335938,399.061737 
	C1316.982300,399.727661 1318.633545,400.382233 1320.274292,401.061432 
	C1327.408691,404.014679 1334.868652,406.385468 1341.569458,410.118042 
	C1347.011963,413.149628 1346.285156,421.400757 1340.608521,423.912262 
	C1336.713257,425.635590 1332.177490,426.997284 1328.011597,426.795258 
	C1319.454468,426.380341 1310.953491,424.807220 1302.246704,423.687347 
	C1302.246704,427.262024 1302.246704,431.363403 1302.246704,435.559021 
	C1313.288574,439.651001 1324.864502,439.654388 1336.257202,438.721344 
	C1341.788452,438.268341 1347.533813,435.728210 1352.388794,432.812134 
	C1359.830078,428.342865 1359.215088,420.370850 1359.021973,412.871521 
	C1358.881104,407.400513 1356.764771,402.708832 1352.106689,400.159668 
	C1346.213867,396.934845 1339.802368,394.654266 1333.600342,391.999573 
	C1328.283081,389.723450 1322.688354,387.932281 1317.744629,385.027313 
	C1315.780029,383.872833 1313.859253,379.933380 1314.391235,377.912781 
	C1315.085205,375.276550 1317.855103,372.532196 1320.436035,371.231262 
	C1323.024048,369.926727 1326.502197,369.911011 1329.547363,370.084076 
	C1337.279663,370.523529 1344.987915,371.384735 1352.807861,372.086273 
	C1352.807861,368.525726 1352.807861,364.407776 1352.807861,360.338715 
	C1341.458862,357.172729 1330.103516,355.624603 1318.704834,358.167236 
	C1314.124146,359.188995 1309.127930,361.056854 1305.713013,364.101288 
	C1294.220337,374.347412 1299.038086,392.479095 1315.335938,399.061737 
M1387.528809,372.984222 
	C1391.063232,371.989471 1394.612671,370.114929 1398.129272,370.174622 
	C1406.673096,370.319550 1415.201782,371.363251 1423.781250,372.048462 
	C1423.781250,368.416809 1423.781250,364.299072 1423.781250,360.261292 
	C1412.359375,357.242615 1401.008911,355.893097 1389.542236,358.083069 
	C1382.527710,359.422760 1375.163696,361.835510 1372.698486,369.079071 
	C1368.296875,382.012482 1370.056030,393.875610 1385.492065,399.024689 
	C1393.144531,401.577362 1400.720093,404.363220 1408.305054,407.113586 
	C1412.380981,408.591522 1416.513428,413.830750 1415.908325,417.023102 
	C1415.071655,421.436920 1412.715576,424.922424 1408.064575,425.862732 
	C1404.549683,426.573242 1400.851807,427.216309 1397.330078,426.884308 
	C1389.296021,426.126984 1381.320312,424.752502 1373.181763,423.609253 
	C1373.181763,427.400482 1373.181763,431.522369 1373.181763,435.493713 
	C1384.253662,439.809448 1395.723755,439.693939 1406.961182,438.705170 
	C1412.783691,438.192871 1418.998901,435.623474 1423.874756,432.285889 
	C1432.894775,426.111664 1433.431641,403.452301 1419.426025,397.867767 
	C1410.140991,394.165527 1400.713867,390.814545 1391.471802,387.011322 
	C1384.433228,384.114838 1383.247559,380.082062 1387.528809,372.984222 
M1472.607910,324.000000 
	C1457.751343,322.663635 1449.238647,334.960114 1449.959961,346.622650 
	C1450.211548,350.690552 1450.000000,354.787079 1450.000000,359.306824 
	C1445.554565,359.306824 1441.818604,359.306824 1438.226562,359.306824 
	C1438.226562,363.375610 1438.226562,366.990723 1438.226562,371.047729 
	C1442.174927,371.047729 1445.919067,371.047729 1450.072998,371.047729 
	C1450.072998,393.548828 1450.072998,415.599884 1450.072998,437.721466 
	C1454.907959,437.721466 1459.302124,437.721466 1464.126465,437.721466 
	C1464.126465,415.396912 1464.126465,393.346893 1464.126465,371.000000 
	C1467.861084,371.000000 1471.164307,371.073242 1474.463257,370.986847 
	C1486.151611,370.680725 1485.083618,373.679657 1484.894653,359.979340 
	C1484.891113,359.721832 1484.541260,359.469055 1484.020142,358.763306 
	C1477.615845,358.763306 1470.879639,358.763306 1464.000122,358.763306 
	C1464.000122,354.489044 1463.886841,350.666443 1464.025024,346.852936 
	C1464.273804,339.986053 1466.822754,336.764099 1473.400146,336.093414 
	C1478.409912,335.582520 1483.513550,335.991943 1489.000000,335.991943 
	C1489.000000,334.467865 1488.866211,332.153015 1489.032471,329.859894 
	C1489.260864,326.709412 1488.597290,324.808014 1484.798828,324.855286 
	C1481.058228,324.901794 1477.309692,324.311127 1472.607910,324.000000 
M1092.980103,438.960083 
	C1102.477661,438.302368 1112.000122,437.866760 1121.452515,436.806610 
	C1123.433472,436.584473 1126.169434,434.384399 1126.761841,432.523987 
	C1127.663574,429.691956 1126.997925,426.360931 1126.997925,424.536957 
	C1117.473633,425.377960 1108.253418,427.049896 1099.121338,426.660126 
	C1094.061401,426.444183 1088.201172,423.854858 1084.353638,420.462006 
	C1074.295410,411.592255 1075.680420,399.513428 1077.777832,387.851715 
	C1078.376343,384.524048 1080.041504,380.949097 1082.280518,378.433960 
	C1090.629639,369.055328 1101.630371,367.816650 1113.257690,369.723358 
	C1117.769897,370.463257 1122.176758,371.844788 1127.000000,373.024139 
	C1127.000000,371.059265 1126.800049,369.543427 1127.036499,368.098969 
	C1127.838867,363.195618 1125.929321,360.691132 1121.029419,359.382629 
	C1111.020020,356.709625 1100.911499,355.681824 1091.029541,358.682373 
	C1084.839355,360.561981 1078.137573,363.126770 1073.527466,367.395355 
	C1059.775024,380.129028 1060.155640,396.687836 1063.886108,413.367981 
	C1067.225952,428.302063 1077.648804,435.877441 1092.980103,438.960083 
M1152.041382,404.034729 
	C1152.027588,401.204224 1151.761353,398.347748 1152.049072,395.548218 
	C1152.803833,388.202911 1154.085449,380.784882 1159.977661,375.704803 
	C1165.399292,371.030548 1172.248169,368.781738 1179.363403,369.134705 
	C1186.873413,369.507263 1194.330566,370.946686 1202.000000,371.944641 
	C1202.000000,370.442413 1201.700439,368.236603 1202.063110,366.145630 
	C1202.786621,361.972717 1200.744263,360.468231 1197.074585,359.455688 
	C1184.948608,356.110016 1172.846313,355.852692 1161.004395,360.120178 
	C1150.983154,363.731537 1143.387207,370.374207 1140.088379,380.867432 
	C1136.709229,391.615936 1136.898438,402.726837 1139.406494,413.467438 
	C1141.720947,423.378662 1147.405884,431.814453 1157.353516,435.590027 
	C1171.432495,440.933655 1185.877319,440.269409 1200.129761,435.827667 
	C1201.352905,435.446503 1202.670410,433.484589 1202.871948,432.100861 
	C1203.293579,429.205353 1202.999512,426.205627 1202.999512,424.482422 
	C1193.671143,425.341095 1184.665405,426.682922 1175.646851,426.776337 
	C1171.359375,426.820740 1166.719604,425.117096 1162.817627,423.091614 
	C1155.686401,419.389801 1153.834595,412.118896 1152.041382,404.034729 
M1596.000000,368.500000 
	C1596.000000,386.636841 1595.978271,404.773712 1596.009766,422.910492 
	C1596.024048,431.215515 1600.839111,438.070648 1608.151001,438.817261 
	C1613.691895,439.382996 1619.377808,438.527069 1624.765137,438.313080 
	C1624.765137,433.466644 1624.765137,429.842316 1624.765137,426.042450 
	C1623.717651,426.042450 1622.829468,425.824188 1622.104126,426.075775 
	C1613.619995,429.018829 1611.165283,425.789734 1610.019409,417.422729 
	C1609.885132,416.442719 1610.000000,415.428497 1610.000000,414.430145 
	C1610.000000,386.808929 1610.000000,359.187744 1610.000000,331.566528 
	C1610.000000,329.800903 1610.000000,328.035248 1610.000000,326.314453 
	C1605.016724,326.314453 1600.624023,326.314453 1596.000000,326.314453 
	C1596.000000,340.251740 1596.000000,353.875854 1596.000000,368.500000 
M1969.000000,418.499573 
	C1969.000000,424.922180 1969.000000,431.344757 1969.000000,437.671753 
	C1974.345459,437.671753 1979.071045,437.671753 1983.690674,437.671753 
	C1983.690674,411.310272 1983.690674,385.278107 1983.690674,359.000000 
	C1978.246948,359.000000 1973.110474,359.000000 1967.973999,359.000000 
	C1959.226440,359.000000 1959.239380,359.001892 1957.951782,367.729980 
	C1957.806030,368.718323 1957.412231,369.670074 1956.973267,371.194641 
	C1961.301514,371.194641 1965.048340,371.194641 1969.000000,371.194641 
	C1969.000000,386.924591 1969.000000,402.212189 1969.000000,418.499573 
M1971.658447,328.000092 
	C1969.035034,327.615417 1967.705322,328.362976 1967.939697,331.395294 
	C1968.203125,334.804413 1968.000244,338.249603 1968.000244,341.736908 
	C1973.573853,341.736908 1978.620483,341.736908 1983.731934,341.736908 
	C1983.731934,337.087280 1983.731934,332.705078 1983.731934,328.000000 
	C1979.851440,328.000000 1976.234985,328.000000 1971.658447,328.000092 
z"/>
<path fill="#FFB600" opacity="1.000000" stroke="none" 
	d="
M1.000000,224.468567 
	C10.259360,222.871567 19.530537,221.830399 28.773239,220.578934 
	C33.608143,219.924301 38.433132,219.068665 43.175838,217.939438 
	C44.582340,217.604538 46.484009,216.243149 46.821381,214.991608 
	C51.626694,197.165375 57.623013,179.811707 66.774277,163.702560 
	C68.556976,160.564438 67.866585,158.161697 65.911476,155.701950 
	C58.979877,146.981247 52.016613,138.285706 45.079311,129.569534 
	C43.661556,127.788223 42.304325,125.958748 40.772930,123.960632 
	C41.998264,122.652733 43.103004,121.456299 44.226227,120.277466 
	C50.975021,113.194611 57.749634,106.136185 64.469101,99.025642 
	C67.180084,96.156876 69.652168,96.173317 72.493462,98.966454 
	C86.480415,112.716385 100.526558,126.406357 114.591934,140.076202 
	C123.639076,148.868927 132.729538,157.617554 141.856918,166.326920 
	C144.596130,168.940704 147.747177,171.158279 150.245575,173.969696 
	C151.113510,174.946365 151.348679,177.879166 150.573929,178.716080 
	C134.984116,195.556625 126.021645,215.759018 122.275780,237.964920 
	C118.499741,260.349670 121.268448,282.386292 129.857101,303.640289 
	C135.896347,318.585419 143.925629,332.186340 155.762939,343.144562 
	C173.324173,359.401672 193.562653,371.293518 217.231400,375.795135 
	C240.250305,380.173157 262.780670,377.109802 284.410065,367.923737 
	C297.637268,362.306091 309.406738,354.491516 319.861633,344.650360 
	C323.735687,341.003754 325.522125,341.121704 329.371338,344.873383 
	C341.508209,356.702789 353.609924,368.569214 365.836395,380.305481 
	C378.991150,392.932831 392.218933,405.485565 405.535461,417.941956 
	C408.734619,420.934479 408.509033,423.070801 405.509308,426.130157 
	C397.995453,433.793304 390.809723,441.778137 382.916321,450.252380 
	C378.418396,447.096405 373.683258,443.783051 368.957642,440.456116 
	C362.156738,435.668152 355.443420,430.747192 348.489197,426.193756 
	C347.280609,425.402344 344.654694,425.484711 343.380615,426.280151 
	C327.645416,436.104156 310.746155,443.115662 292.933350,448.153900 
	C291.316132,448.611359 289.397491,451.052673 289.143158,452.795227 
	C287.162537,466.366333 285.555664,479.991943 283.772003,494.084961 
	C262.184265,494.469086 240.795212,494.849670 219.203094,495.615112 
	C214.643097,496.000000 210.286194,496.000000 205.450058,495.585449 
	C204.653763,494.254608 204.175690,493.360840 204.044006,492.418640 
	C202.325226,480.120026 200.717911,467.805450 198.916733,455.519165 
	C198.586548,453.267059 197.991211,451.550690 194.737228,450.679260 
	C183.155930,447.577728 171.641983,444.051239 160.421432,439.836700 
	C152.869308,437.000031 145.854523,432.732758 138.544052,429.077881 
	C128.062378,437.840942 117.633965,446.604523 107.143784,455.293488 
	C104.914307,457.140167 102.900635,457.614838 100.350807,454.998322 
	C94.343979,448.834320 87.881180,443.117065 81.670197,437.149017 
	C71.496231,427.373047 61.498756,417.409119 51.167801,407.803040 
	C47.420708,404.318848 47.520271,401.720428 50.542191,397.792969 
	C57.697880,388.493134 64.236351,378.718658 71.379990,369.408997 
	C73.221931,367.008545 72.927757,365.389893 71.685356,363.270874 
	C69.129425,358.911499 66.074165,354.760162 64.133080,350.141327 
	C58.909653,337.712219 54.198380,325.068481 49.177265,312.552704 
	C48.647491,311.232178 47.606514,309.482971 46.462582,309.168030 
	C43.653873,308.394745 40.651375,308.293091 37.718296,308.009552 
	C27.099695,306.983093 16.465834,306.092255 5.874575,304.838898 
	C4.790381,304.710632 3.204859,302.535217 3.131931,301.237762 
	C2.823923,295.757996 3.259316,290.235168 2.923282,284.758698 
	C2.620145,279.818390 1.666664,274.917999 0.999999,270.000000 
	C1.000000,267.629425 1.000000,265.258881 1.384086,262.242249 
	C1.512115,256.397491 1.256057,251.198746 1.000000,246.000000 
	C1.000000,238.979050 1.000000,231.958099 1.000000,224.468567 
z"/>
<path fill="#FFB600" opacity="1.000000" stroke="none" 
	d="
M282.531342,0.999999 
	C286.599060,1.662853 290.174835,2.519184 293.801117,2.956218 
	C313.002197,5.270300 331.376862,10.632621 349.309296,17.705378 
	C368.838654,25.407982 387.387787,35.184978 403.488525,48.522293 
	C416.110596,58.977962 427.311127,71.234222 438.546265,83.248772 
	C445.567902,90.757507 451.736877,99.114754 457.839081,107.421379 
	C470.315765,124.405190 479.080109,143.332672 484.837677,163.504211 
	C488.267365,175.520172 491.571655,187.825211 492.656097,200.199783 
	C494.417542,220.299576 495.395325,240.602020 494.670837,260.745819 
	C494.022308,278.777191 489.921997,296.550171 484.103699,313.795563 
	C477.551666,333.215759 469.037567,351.740143 456.964233,368.271484 
	C447.980499,380.572357 437.614410,391.862488 427.890076,403.624359 
	C425.169006,406.915619 422.750427,406.187775 419.989380,403.531342 
	C405.167572,389.271057 390.267212,375.092407 375.385773,360.894135 
	C361.106842,347.270721 346.816498,333.659302 332.533691,320.039978 
	C318.130341,306.305695 303.731995,292.566132 289.327881,278.832672 
	C275.164886,265.329132 260.994751,251.833069 246.832565,238.328705 
	C232.308624,224.479446 217.793320,210.621140 203.269058,196.772217 
	C189.106522,183.268188 174.934341,169.774277 160.772125,156.269897 
	C146.248230,142.420639 131.764862,128.528641 117.200066,114.722542 
	C106.625183,104.698509 95.981651,94.745987 85.287209,84.849678 
	C82.889923,82.631294 82.628082,81.205818 84.948410,78.367203 
	C98.916153,61.279503 116.013092,48.077045 134.707520,36.624172 
	C149.798996,27.378605 165.768692,19.919563 182.475525,14.497722 
	C196.494202,9.948262 211.117325,7.177426 225.576355,4.106610 
	C232.123306,2.716166 238.921204,2.507360 245.802628,1.381246 
	C258.020905,1.000000 270.041779,1.000000 282.531342,0.999999 
M350.341431,41.065296 
	C318.566193,26.825869 285.375549,20.146425 251.198654,22.217051 
	C246.619476,43.229328 242.104767,63.945854 237.582870,84.695358 
	C274.169189,97.051788 307.917145,114.663170 336.817139,143.051193 
	C338.038910,141.327179 338.952789,139.707321 340.174164,138.367905 
	C347.971039,129.817688 355.724884,121.223755 363.704834,112.846115 
	C374.587921,101.420578 385.642914,90.158386 396.660095,78.861191 
	C401.085022,74.323845 401.094818,73.523865 396.147400,69.669243 
	C382.073608,58.704071 367.253265,48.932018 350.341431,41.065296 
M475.000000,228.443954 
	C473.268372,174.300446 452.011505,128.477737 416.215759,88.548729 
	C394.263855,111.671989 372.872223,134.205078 351.435791,156.785355 
	C379.109802,185.201675 399.693756,217.329086 414.646576,252.937332 
	C415.349304,252.937332 415.722321,253.038483 416.007446,252.922867 
	C434.044189,245.609619 452.796967,241.003891 471.966553,237.881699 
	C473.106750,237.695999 474.506409,236.087952 474.868286,234.869415 
	C475.368744,233.184326 474.997772,231.240448 475.000000,228.443954 
M354.477997,190.959625 
	C348.988281,184.598526 343.498535,178.237442 337.633881,171.441910 
	C316.452423,193.692352 295.698792,215.493362 274.636414,237.618729 
	C282.371216,244.843323 289.846466,251.656418 297.131317,258.667297 
	C309.700989,270.764191 322.130463,283.006683 334.674408,295.130524 
	C336.825500,297.209564 339.252930,299.002686 341.069916,300.523743 
	C350.523438,293.158783 359.178650,285.833588 368.434998,279.369171 
	C377.585663,272.978638 387.343567,267.457672 397.265381,261.287689 
	C391.801514,250.505356 387.094391,239.494873 380.890991,229.404266 
	C372.881653,216.376007 363.675995,204.083237 354.477997,190.959625 
M297.022583,137.500427 
	C278.283295,123.984489 257.881165,113.597176 236.451614,105.089729 
	C229.107834,102.174278 229.204086,101.994225 225.590042,108.852364 
	C224.453583,111.008965 223.292923,113.169350 221.942154,115.193764 
	C212.908752,128.732330 203.942169,142.319016 194.642181,155.672989 
	C192.912506,158.156662 192.719604,159.426315 194.884918,161.423065 
	C201.089737,167.144821 207.220520,172.949326 213.290451,178.814407 
	C225.344879,190.462051 237.316299,202.195618 249.376068,213.837708 
	C251.976562,216.348160 254.649704,218.851196 257.620209,220.871155 
	C258.568451,221.515991 261.186035,221.164505 262.018311,220.293198 
	C269.426453,212.537384 276.480896,204.444000 283.881012,196.680237 
	C295.101257,184.908585 306.492981,173.299774 317.875275,161.683945 
	C319.222778,160.308792 320.968414,159.323807 323.263062,157.610123 
	C313.950775,150.461807 305.786224,144.194550 297.022583,137.500427 
M454.460938,261.987640 
	C443.554596,265.491119 432.648254,268.994598 421.672699,272.520325 
	C431.853394,302.733002 436.666779,332.564026 435.260345,363.397125 
	C459.504852,332.329498 470.283630,296.630432 474.437897,257.510284 
	C467.305054,259.150757 461.301971,260.531403 454.460938,261.987640 
M128.360916,65.931625 
	C127.680313,66.459419 126.999710,66.987206 126.136017,67.656975 
	C157.010574,66.403625 186.813797,70.627243 216.443390,78.111847 
	C222.463425,60.470322 228.008652,42.917736 229.154343,23.574133 
	C191.785950,29.659174 159.053925,44.400734 128.360916,65.931625 
M390.521912,288.984924 
	C381.238281,295.605011 371.840942,302.072906 362.708862,308.895844 
	C356.014465,313.897491 356.113342,314.742798 362.099701,320.582550 
	C374.216980,332.403168 386.315369,344.244080 398.525299,355.968567 
	C403.710022,360.947174 409.155853,365.653900 414.764618,370.739502 
	C416.287628,340.233368 412.700714,310.796295 403.718903,281.605988 
	C399.050049,284.134583 395.052368,286.299713 390.521912,288.984924 
M203.003540,107.495239 
	C204.802567,104.058731 206.601593,100.622223 208.372894,97.238655 
	C198.590317,90.971886 135.691620,85.133789 118.270569,88.697746 
	C138.056091,107.505814 157.728775,126.206619 178.447876,145.902145 
	C186.621323,133.026443 194.552643,120.532181 203.003540,107.495239 
z"/>
<path fill="#003BBF" opacity="1.000000" stroke="none" 
	d="
M2112.000000,243.555832 
	C2111.487061,245.250275 2110.974121,246.500534 2110.411621,247.871490 
	C2089.201660,247.871490 2067.906006,247.871490 2046.000000,247.871490 
	C2046.000000,245.988190 2046.000000,244.223831 2046.000000,242.459473 
	C2046.000000,217.130447 2046.000122,191.801437 2046.000000,166.472412 
	C2045.999878,154.359879 2039.393921,149.122940 2027.637207,152.242264 
	C2024.403809,153.100189 2021.304321,154.698532 2018.361816,156.347046 
	C2015.755493,157.807251 2014.888794,160.202133 2014.907959,163.427567 
	C2015.069092,190.588654 2014.999634,217.751099 2014.999390,244.913147 
	C2014.999390,245.727921 2014.999390,246.542694 2014.999390,247.678558 
	C1993.383789,247.678558 1971.988525,247.678558 1950.295898,247.678558 
	C1950.295898,200.666962 1950.295898,153.608749 1950.295898,106.208344 
	C1951.572388,106.138939 1952.849609,106.010010 1954.126831,106.009026 
	C1971.457153,105.995659 1988.787842,106.043732 2006.117676,105.959389 
	C2009.202148,105.944382 2011.340088,106.278885 2011.049683,110.191521 
	C2010.757812,114.121231 2012.627808,114.663780 2015.959717,113.037811 
	C2033.742798,104.359436 2052.855225,102.090256 2072.058105,104.267570 
	C2093.426758,106.690453 2104.576660,116.781174 2108.989746,139.290268 
	C2109.861816,143.739197 2110.505859,148.232864 2111.627441,152.852936 
	C2112.000000,153.750000 2112.000000,154.500000 2111.603027,155.811218 
	C2111.139160,182.259674 2111.064941,208.146912 2111.047119,234.034210 
	C2111.046631,234.689255 2111.668457,235.344742 2112.000000,236.000000 
	C2112.000000,238.370560 2112.000000,240.741104 2112.000000,243.555832 
z"/>
<path fill="#FFFFFF" opacity="1.000000" stroke="none" 
	d="
M0.999999,270.468658 
	C1.666664,274.917999 2.620145,279.818390 2.923282,284.758698 
	C3.259316,290.235168 2.823923,295.757996 3.131931,301.237762 
	C3.204859,302.535217 4.790381,304.710632 5.874575,304.838898 
	C16.465834,306.092255 27.099695,306.983093 37.718296,308.009552 
	C40.651375,308.293091 43.653873,308.394745 46.462582,309.168030 
	C47.606514,309.482971 48.647491,311.232178 49.177265,312.552704 
	C54.198380,325.068481 58.909653,337.712219 64.133080,350.141327 
	C66.074165,354.760162 69.129425,358.911499 71.685356,363.270874 
	C72.927757,365.389893 73.221931,367.008545 71.379990,369.408997 
	C64.236351,378.718658 57.697880,388.493134 50.542191,397.792969 
	C47.520271,401.720428 47.420708,404.318848 51.167801,407.803040 
	C61.498756,417.409119 71.496231,427.373047 81.670197,437.149017 
	C87.881180,443.117065 94.343979,448.834320 100.350807,454.998322 
	C102.900635,457.614838 104.914307,457.140167 107.143784,455.293488 
	C117.633965,446.604523 128.062378,437.840942 138.544052,429.077881 
	C145.854523,432.732758 152.869308,437.000031 160.421432,439.836700 
	C171.641983,444.051239 183.155930,447.577728 194.737228,450.679260 
	C197.991211,451.550690 198.586548,453.267059 198.916733,455.519165 
	C200.717911,467.805450 202.325226,480.120026 204.044006,492.418640 
	C204.175690,493.360840 204.653763,494.254608 204.985413,495.585449 
	C137.069244,496.000000 69.138481,496.000000 1.000000,496.000000 
	C1.000000,420.979248 1.000000,345.958282 0.999999,270.468658 
z"/>
<path fill="#003BBF" opacity="1.000000" stroke="none" 
	d="
M2112.000000,387.555847 
	C2111.333496,389.497040 2110.143799,390.975983 2110.091309,392.494171 
	C2109.873779,398.786163 2110.000000,405.090057 2110.000000,411.693787 
	C2106.026855,411.693787 2102.297363,411.693787 2098.563965,411.698425 
	C2097.051758,402.968781 2096.182129,341.526825 2097.477295,331.008667 
	C2101.358398,331.008667 2105.310303,330.930054 2109.252686,331.083771 
	C2109.932861,331.110291 2110.574463,332.123352 2111.616943,332.840332 
	C2112.000000,333.750000 2112.000000,334.500000 2111.603027,335.811157 
	C2111.139404,350.262360 2111.058838,364.152435 2111.048096,378.042511 
	C2111.047607,378.694763 2111.668457,379.347504 2112.000000,380.000000 
	C2112.000000,382.370575 2112.000000,384.741119 2112.000000,387.555847 
z"/>
<path fill="#003BBF" opacity="1.000000" stroke="none" 
	d="
M2112.000000,437.539368 
	C2106.867920,438.000000 2101.735596,438.000000 2096.302734,438.000000 
	C2096.302734,434.024750 2096.302734,430.298645 2096.302734,426.000000 
	C2101.205811,426.000000 2106.135254,426.000000 2111.532471,426.000000 
	C2112.000000,429.692902 2112.000000,433.385834 2112.000000,437.539368 
z"/>
<path fill="#FFFFFF" opacity="1.000000" stroke="none" 
	d="
M2112.000000,235.531342 
	C2111.668457,235.344742 2111.046631,234.689255 2111.047119,234.034210 
	C2111.064941,208.146912 2111.139160,182.259674 2111.603027,156.186218 
	C2112.000000,182.354233 2112.000000,208.708450 2112.000000,235.531342 
z"/>
<path fill="#FFFFFF" opacity="1.000000" stroke="none" 
	d="
M2112.000000,379.531342 
	C2111.668457,379.347504 2111.047607,378.694763 2111.048096,378.042511 
	C2111.058838,364.152435 2111.139404,350.262360 2111.603027,336.186157 
	C2112.000000,350.354218 2112.000000,364.708466 2112.000000,379.531342 
z"/>
<path fill="#FFFFFF" opacity="1.000000" stroke="none" 
	d="
M1.000000,246.466858 
	C1.256057,251.198746 1.512115,256.397491 1.384086,261.798096 
	C1.000000,256.977905 1.000000,251.955811 1.000000,246.466858 
z"/>
<path fill="#003BBF" opacity="1.000000" stroke="none" 
	d="
M750.000000,104.000000 
	C739.529297,104.000000 729.558594,104.000000 719.294922,104.000000 
	C719.294922,112.000526 719.294922,119.729675 719.294922,127.915321 
	C743.384033,127.915321 767.444519,127.915321 791.750244,127.915321 
	C791.750244,144.093262 791.750244,159.819168 791.750244,175.823120 
	C767.649841,175.823120 743.709778,175.823120 719.316895,175.823120 
	C719.316895,199.817322 719.316895,223.543991 719.316895,247.634491 
	C697.477112,247.634491 676.084656,247.634491 654.345337,247.634491 
	C654.345337,184.112167 654.345337,120.399612 654.345337,56.343292 
	C703.562317,56.343292 752.945740,56.343292 802.664917,56.343292 
	C802.664917,71.918602 802.664917,87.645752 802.664917,104.000000 
	C785.343079,104.000000 767.921570,104.000000 750.000000,104.000000 
z"/>
<path fill="#003BBF" opacity="1.000000" stroke="none" 
	d="
M1043.537109,114.764282 
	C1053.153564,111.397179 1062.202515,107.063667 1071.725952,105.317421 
	C1081.380127,103.547226 1091.505127,104.008362 1101.420166,104.070885 
	C1119.518799,104.185013 1136.499512,119.079010 1138.905396,137.060730 
	C1140.100830,145.995560 1140.817749,155.054474 1140.908081,164.065704 
	C1141.168335,190.053192 1141.000000,216.044983 1141.000000,242.035080 
	C1141.000000,243.838501 1141.000000,245.641922 1141.000000,247.721069 
	C1119.300415,247.721069 1097.908936,247.721069 1076.000000,247.721069 
	C1076.000000,245.880661 1076.000000,244.103882 1076.000000,242.327103 
	C1076.000000,217.003418 1076.000000,191.679733 1076.000000,166.356049 
	C1076.000000,153.884949 1069.282837,148.710205 1057.278198,152.374603 
	C1053.650635,153.481934 1050.147949,155.473297 1047.084106,157.732437 
	C1045.746338,158.718903 1045.093018,161.395447 1045.084717,163.308716 
	C1044.961548,191.292358 1045.000000,219.276718 1045.000000,247.630356 
	C1023.485291,247.630356 1002.092285,247.630356 980.348877,247.630356 
	C980.348877,200.780930 980.348877,153.729309 980.348877,106.338493 
	C1000.247253,106.338493 1020.308655,106.338493 1040.050293,106.338493 
	C1041.099976,109.222878 1042.138916,112.077934 1043.537109,114.764282 
z"/>
<path fill="#003BBF" opacity="1.000000" stroke="none" 
	d="
M875.001831,156.000000 
	C882.484314,156.000000 889.467224,156.000000 896.761047,156.000000 
	C897.438599,151.156418 895.029541,148.253403 891.182434,146.748230 
	C881.572388,142.988358 871.634705,142.139481 861.384521,143.764709 
	C852.848694,145.118103 844.197571,145.741547 835.658142,147.076004 
	C830.778625,147.838562 826.020264,149.376389 821.000305,150.616287 
	C821.000305,139.221298 820.867493,128.063568 821.150818,116.916405 
	C821.190918,115.338120 823.008728,112.761139 824.424438,112.426544 
	C835.914612,109.710861 847.413147,106.693649 859.092285,105.213791 
	C869.714600,103.867836 880.566284,104.068840 891.317261,104.059563 
	C909.154602,104.044174 925.814026,108.700447 940.288696,119.210052 
	C949.407166,125.830635 955.317017,135.330048 956.837158,146.578720 
	C958.265198,157.145554 958.772461,167.890503 958.909485,178.567032 
	C959.204163,201.519272 959.000000,224.477921 959.000000,248.000000 
	C952.442871,248.000000 946.176331,248.000000 939.909790,248.000000 
	C929.416809,248.000000 918.908569,247.665359 908.437500,248.143829 
	C903.342651,248.376617 900.740356,247.013870 900.387024,241.859146 
	C900.301575,240.611908 899.873718,239.388138 899.465149,237.523026 
	C890.661743,244.636307 880.582947,248.222641 869.955933,249.411194 
	C853.234253,251.281403 836.377686,252.128616 821.422974,242.029922 
	C811.289429,235.186859 805.737488,225.608963 803.846130,213.385513 
	C802.323303,203.543839 803.254761,194.213943 806.511597,185.010147 
	C810.443054,173.900177 818.251404,165.987534 829.133118,162.262604 
	C837.459290,159.412415 846.462891,158.349365 855.252319,157.108841 
	C861.594849,156.213638 868.080505,156.333084 875.001831,156.000000 
M897.000000,200.299652 
	C897.000000,197.341125 897.000000,194.382599 897.000000,191.010132 
	C888.961243,191.010132 881.321838,190.684814 873.724426,191.109604 
	C867.254272,191.471344 863.088196,195.973206 862.536987,202.011581 
	C862.031860,207.545868 865.442688,210.991943 872.212891,213.161911 
	C878.206970,215.083115 883.626831,213.347305 888.572388,210.866287 
	C892.317688,208.987350 898.209534,207.872131 897.000000,200.299652 
z"/>
<path fill="#003BBF" opacity="1.000000" stroke="none" 
	d="
M1296.812744,127.316574 
	C1304.452637,137.927780 1307.024170,149.645157 1307.009521,162.136078 
	C1306.978394,188.800507 1307.000000,215.465012 1307.000000,242.129486 
	C1307.000000,243.924744 1307.000000,245.720016 1307.000000,247.755035 
	C1288.020874,247.755035 1269.416260,247.755035 1250.521973,247.755035 
	C1249.688721,244.748474 1248.801392,241.546951 1248.128906,239.120361 
	C1240.100708,242.219650 1232.316406,245.734070 1224.207520,248.165802 
	C1219.284424,249.642120 1213.847412,249.351669 1208.662598,250.020096 
	C1198.829346,251.287872 1189.299927,250.046844 1179.903076,247.046341 
	C1162.736938,241.565002 1151.844482,225.949509 1152.090332,208.687180 
	C1152.187622,201.850845 1152.613037,194.878342 1154.082153,188.231537 
	C1157.202148,174.116333 1167.130981,165.634338 1180.185669,161.226852 
	C1187.469238,158.767792 1195.403076,157.518341 1203.107910,157.178665 
	C1217.302612,156.552856 1231.544434,156.999954 1245.774048,156.999954 
	C1245.690796,148.105743 1239.150146,145.180679 1229.818481,144.052475 
	C1207.162354,141.313339 1188.157593,145.763260 1169.004272,150.895004 
	C1169.004272,139.167282 1168.710205,127.548676 1169.317627,115.977386 
	C1169.409912,114.218231 1173.460205,111.954384 1176.058960,111.150826 
	C1198.975586,104.064919 1222.655518,102.417419 1246.297363,104.284485 
	C1265.348755,105.789055 1283.432007,111.487450 1296.812744,127.316574 
M1243.595581,206.927094 
	C1248.463135,202.118698 1244.842896,196.413773 1246.152710,191.000000 
	C1238.273438,191.000000 1231.282715,190.999985 1224.292114,191.000015 
	C1223.792358,191.000015 1223.279053,190.925568 1222.794800,191.012161 
	C1218.270996,191.820984 1213.921143,192.625519 1211.907471,197.806015 
	C1210.015259,202.673874 1210.806396,207.112442 1214.202393,210.471420 
	C1218.021973,214.249512 1223.467896,214.979172 1228.433716,213.627396 
	C1233.481079,212.253403 1238.171753,209.569504 1243.595581,206.927094 
z"/>
<path fill="#003BBF" opacity="1.000000" stroke="none" 
	d="
M1824.823853,156.999603 
	C1836.878784,156.666168 1848.463501,156.323761 1860.049072,156.008377 
	C1862.200195,155.949814 1864.354126,156.000000 1866.472656,156.000000 
	C1867.012207,150.843307 1865.018921,147.754532 1859.323120,146.055115 
	C1849.694702,143.182358 1839.950073,141.971329 1829.833618,143.861786 
	C1820.240601,145.654404 1810.481201,146.538116 1800.833252,148.063843 
	C1797.361084,148.612915 1794.000366,149.867325 1790.015869,150.956482 
	C1790.015869,139.053741 1789.964355,127.313362 1790.121216,115.575768 
	C1790.132935,114.707535 1791.486694,113.442444 1792.482910,113.065468 
	C1804.235474,108.617767 1816.409790,105.830322 1828.939697,105.068138 
	C1839.836914,104.405273 1850.773682,103.970139 1861.686279,104.085091 
	C1878.056641,104.257545 1893.661133,108.150810 1907.366577,117.257385 
	C1918.522461,124.670036 1925.378540,135.398697 1926.960083,148.977524 
	C1927.567993,154.195709 1927.934692,159.471970 1927.954712,164.723511 
	C1928.053833,190.705475 1928.000000,216.687988 1928.000000,242.670319 
	C1928.000000,244.299805 1928.000000,245.929276 1928.000000,248.000000 
	C1912.660278,248.000000 1897.720337,248.000000 1882.780396,248.000000 
	C1881.947632,248.000000 1881.114868,248.000000 1880.282104,248.000000 
	C1871.931641,248.000000 1871.940918,247.997681 1869.817993,239.528473 
	C1869.711670,239.104477 1869.204712,238.780975 1868.763550,238.271286 
	C1856.671997,246.176590 1843.456421,249.880814 1828.911499,250.188354 
	C1818.745117,250.403320 1809.048340,249.898376 1799.410400,246.227478 
	C1786.008545,241.122986 1777.606323,231.938889 1774.561157,218.045593 
	C1771.346558,203.380219 1772.081299,189.195984 1780.949463,176.310791 
	C1787.506714,166.783478 1796.994507,161.684097 1807.873169,159.108414 
	C1813.232788,157.839447 1818.852173,157.667999 1824.823853,156.999603 
M1854.003540,212.967712 
	C1855.870972,211.997864 1857.734253,211.020065 1859.606445,210.059494 
	C1868.308228,205.594940 1867.621948,204.892853 1866.351685,191.001282 
	C1858.757080,191.001282 1851.133789,190.839218 1843.520874,191.051880 
	C1837.279541,191.226227 1831.989502,195.991623 1832.140137,201.900116 
	C1832.291016,207.811172 1833.657715,211.949509 1841.732178,212.940308 
	C1845.489258,213.401352 1849.351562,213.004608 1854.003540,212.967712 
z"/>
<path fill="#003BBF" opacity="1.000000" stroke="none" 
	d="
M1527.740723,157.654999 
	C1544.979248,156.720078 1561.852661,156.049805 1578.908691,155.372284 
	C1579.417847,150.698029 1576.500610,147.651199 1572.507935,146.337128 
	C1562.633423,143.087219 1552.515015,141.971008 1542.078003,143.870499 
	C1531.040771,145.879211 1519.894043,147.282150 1508.808594,149.034515 
	C1506.903198,149.335693 1505.064819,150.060318 1503.113037,150.612656 
	C1503.113037,138.206070 1503.113037,125.893211 1503.113037,112.169861 
	C1515.963623,109.796394 1528.880737,106.658615 1541.984619,105.210220 
	C1554.127808,103.868004 1566.547485,103.316597 1578.707275,104.239189 
	C1596.761597,105.609016 1613.980957,110.563179 1627.312744,123.928650 
	C1635.290771,131.926804 1639.645386,142.200897 1639.823608,153.278564 
	C1640.327393,184.593048 1639.999878,215.920898 1639.999878,247.735474 
	C1638.504028,247.826767 1637.085205,247.986862 1635.666016,247.988617 
	C1620.836426,248.007019 1605.992798,247.625534 1591.184448,248.187439 
	C1585.398193,248.406998 1582.702881,246.683395 1582.068115,241.207352 
	C1581.954590,240.228241 1581.908813,239.241272 1581.893799,239.048538 
	C1573.607788,242.211136 1565.505859,246.458344 1556.887451,248.342545 
	C1540.981567,251.819931 1524.688354,252.266846 1509.403320,245.579330 
	C1495.897949,239.670471 1488.062378,229.015610 1485.840820,213.988327 
	C1484.287354,203.481689 1484.921997,193.413391 1488.842407,183.728592 
	C1494.602417,169.498947 1506.226074,162.344650 1520.631348,159.025879 
	C1522.846802,158.515457 1525.125854,158.281479 1527.740723,157.654999 
M1545.329590,197.169724 
	C1543.915283,205.948303 1544.998291,209.613388 1550.355469,212.044296 
	C1559.288452,216.097794 1567.447144,213.442291 1575.047241,208.389313 
	C1581.808716,203.893890 1578.098389,197.129425 1579.071777,191.001434 
	C1570.740479,191.001434 1563.099487,190.852310 1555.468506,191.062088 
	C1551.436035,191.172943 1548.077026,193.023224 1545.329590,197.169724 
z"/>
<path fill="#003BBF" opacity="1.000000" stroke="none" 
	d="
M1411.999512,248.000000 
	C1397.501221,248.000000 1383.502319,247.948776 1369.504395,248.040344 
	C1366.462769,248.060242 1364.788696,247.700470 1363.416748,244.133209 
	C1350.143921,209.624786 1336.504517,175.257339 1322.948975,140.857849 
	C1318.979370,130.784363 1314.929321,120.742645 1310.956055,110.670609 
	C1310.438110,109.357895 1310.159668,107.950714 1309.669922,106.235260 
	C1332.282715,106.235260 1354.389771,106.235260 1376.567505,106.235260 
	C1383.975464,129.187866 1390.241211,152.519333 1397.849243,175.403351 
	C1398.375977,175.239059 1398.902832,175.074768 1399.429688,174.910477 
	C1406.415405,152.070694 1413.401001,129.230896 1420.451172,106.180412 
	C1442.749268,106.180412 1465.211548,106.180412 1488.109741,106.180412 
	C1482.691528,119.869331 1477.358032,133.338379 1472.028931,146.809189 
	C1461.691895,172.938995 1451.335327,199.061188 1441.036621,225.206131 
	C1438.493286,231.662491 1436.358765,238.290894 1433.544922,244.621780 
	C1432.849487,246.186523 1430.296631,247.701920 1428.485474,247.847946 
	C1423.187134,248.275162 1417.832153,247.999969 1411.999512,248.000000 
z"/>
<path fill="#003BBF" opacity="1.000000" stroke="none" 
	d="
M1662.000000,221.000000 
	C1662.000000,182.529999 1662.000000,144.559998 1662.000000,106.295334 
	C1682.868042,106.295334 1703.464233,106.295334 1724.618530,106.295334 
	C1725.169312,108.878754 1725.796021,111.818573 1726.541870,115.317146 
	C1741.490845,108.776070 1756.647095,103.055458 1773.673340,104.094658 
	C1773.673340,119.931343 1773.673340,135.663162 1773.673340,150.764374 
	C1758.127563,153.249588 1742.617798,155.729019 1727.062500,158.215744 
	C1727.062500,188.706924 1727.062500,218.008240 1727.062500,247.654327 
	C1705.432251,247.654327 1684.035889,247.654327 1662.000000,247.654327 
	C1662.000000,239.023209 1662.000000,230.261597 1662.000000,221.000000 
z"/>
<path fill="#003BBF" opacity="1.000000" stroke="none" 
	d="
M702.918884,331.000000 
	C708.386292,331.712128 713.593689,331.732391 718.299438,333.278870 
	C728.419312,336.604492 732.999268,344.904846 733.843018,354.813965 
	C734.881653,367.011475 732.779297,374.812225 722.574829,382.546021 
	C730.070251,385.383667 735.530823,389.923920 737.098145,398.543365 
	C738.412842,405.773529 738.247192,412.664917 736.156128,419.769348 
	C732.960083,430.627747 724.940002,436.230286 714.818909,436.714630 
	C694.808044,437.672150 674.718994,436.997162 654.329102,436.997162 
	C654.329102,402.415955 654.329102,367.038727 654.329102,331.000000 
	C670.275879,331.000000 686.353699,331.000000 702.918884,331.000000 
M676.547363,426.000000 
	C686.197388,426.000000 695.847412,426.001251 705.497437,425.999603 
	C713.997314,425.998138 719.956116,422.809814 721.931946,416.478943 
	C724.764954,407.400970 724.550598,397.007751 717.582825,392.393066 
	C714.304565,390.221863 709.747864,389.211151 705.724182,389.078339 
	C693.244812,388.666504 680.743286,388.927704 668.318115,388.927704 
	C668.318115,401.008270 668.318115,413.391327 668.318115,426.000000 
	C670.944763,426.000000 673.255005,426.000000 676.547363,426.000000 
M720.000000,358.643219 
	C719.876099,350.715515 715.072449,343.412689 708.529053,343.166138 
	C695.183777,342.663361 681.806274,343.015594 668.237366,343.015594 
	C668.237366,353.823730 668.237366,365.215607 668.237366,377.000000 
	C679.756836,377.000000 691.062134,376.582214 702.322327,377.116364 
	C713.803223,377.660980 721.010376,370.488892 720.000000,358.643219 
z"/>
<path fill="#003BBF" opacity="1.000000" stroke="none" 
	d="
M1835.994629,465.005554 
	C1834.627808,465.328918 1833.693481,465.960480 1832.789307,465.919800 
	C1820.284058,465.357422 1807.727051,465.219788 1795.301880,463.875824 
	C1787.893311,463.074493 1787.987549,462.207275 1787.999634,454.991455 
	C1788.002197,453.503967 1788.000000,452.016479 1788.000000,450.748108 
	C1797.916626,452.175751 1807.586670,454.128876 1817.342896,454.770569 
	C1823.602417,455.182343 1830.007935,453.802979 1836.312622,452.961121 
	C1841.002808,452.334778 1842.651245,448.931488 1841.889526,444.748444 
	C1841.191284,440.913971 1838.081787,439.099213 1834.322144,439.042297 
	C1825.660034,438.911194 1816.992676,439.111481 1808.331665,438.946564 
	C1804.747803,438.878326 1801.111206,438.516968 1797.610962,437.765442 
	C1790.785034,436.299835 1787.241577,431.597870 1786.035522,424.921722 
	C1785.251831,420.584106 1789.374023,412.806763 1793.976440,410.016541 
	C1794.802734,409.515564 1795.705322,409.140289 1796.876587,408.555115 
	C1784.134644,399.863037 1784.648682,387.286835 1787.104980,374.453003 
	C1788.772095,365.741760 1799.320557,358.239777 1810.043823,358.071808 
	C1827.131226,357.804138 1844.225830,358.000275 1861.648804,358.000275 
	C1861.648804,362.222809 1861.648804,365.286987 1861.648804,368.793884 
	C1857.750000,368.793884 1853.686401,368.793884 1849.251465,368.793884 
	C1857.249390,380.349152 1856.870605,391.625610 1849.987915,402.832947 
	C1845.562622,410.038605 1838.236816,412.306763 1830.416992,412.914673 
	C1824.786011,413.352417 1819.088257,413.151764 1813.430420,412.953033 
	C1808.709106,412.787170 1805.227051,414.937317 1802.293579,418.226776 
	C1799.467407,421.395630 1800.666016,425.308594 1804.904541,425.904938 
	C1810.089966,426.634491 1815.371094,426.717957 1820.615601,426.987640 
	C1828.020630,427.368439 1835.513794,427.086395 1842.815674,428.146057 
	C1851.397339,429.391449 1856.587646,435.570374 1856.906128,444.285217 
	C1857.189209,452.035034 1854.245361,459.347748 1845.805298,462.591492 
	C1842.816650,463.740112 1839.569824,464.217407 1835.994629,465.005554 
M1808.874512,370.016174 
	C1803.735962,372.178955 1801.339478,376.327698 1800.157227,381.558563 
	C1798.103760,390.644012 1802.948364,399.349426 1812.220947,400.867157 
	C1818.365967,401.872955 1824.883057,401.486328 1831.119507,400.753052 
	C1835.522583,400.235321 1839.063232,396.764160 1839.657837,392.376465 
	C1840.283691,387.757935 1839.493530,382.911682 1839.039429,378.192169 
	C1838.541016,373.013580 1834.561157,370.444153 1830.320923,369.292633 
	C1823.515381,367.444366 1816.475586,367.144470 1808.874512,370.016174 
z"/>
<path fill="#003BBF" opacity="1.000000" stroke="none" 
	d="
M1705.026123,353.142120 
	C1707.937988,345.586670 1710.822510,338.430725 1713.767700,331.124329 
	C1719.214722,331.124329 1724.851074,331.124329 1730.410522,331.124329 
	C1743.835205,366.608948 1757.209106,401.959595 1770.843262,437.998047 
	C1765.884399,437.998047 1762.018799,438.379639 1758.295654,437.817383 
	C1756.723022,437.579865 1754.807251,435.614655 1754.151611,433.989380 
	C1751.197021,426.664734 1748.781006,419.122314 1745.804443,411.807556 
	C1745.276123,410.509094 1743.021973,409.145020 1741.543701,409.121216 
	C1728.558960,408.912170 1715.568359,409.086243 1702.581909,408.933258 
	C1699.707031,408.899414 1698.776855,410.101318 1697.914917,412.596497 
	C1695.334839,420.064819 1692.576782,427.485046 1689.481567,434.750793 
	C1688.854492,436.222961 1686.542480,437.615540 1684.839233,437.856567 
	C1681.429443,438.339020 1677.903320,437.999786 1673.012207,437.999786 
	C1683.859985,409.357086 1694.429321,381.449341 1705.026123,353.142120 
M1710.999023,373.535339 
	C1708.140503,381.278717 1705.281860,389.022064 1702.404175,396.817383 
	C1715.508057,396.817383 1728.142578,396.817383 1741.541016,396.817383 
	C1734.997314,379.614746 1728.611694,362.827667 1721.923218,345.244629 
	C1718.019043,355.119446 1714.536865,363.927155 1710.999023,373.535339 
z"/>
<path fill="#003BBF" opacity="1.000000" stroke="none" 
	d="
M929.173950,394.645233 
	C917.632507,390.911743 906.188965,387.955414 895.167664,383.862000 
	C876.056519,376.763916 874.075745,355.381531 883.597168,341.898071 
	C889.318481,333.796021 898.018738,331.399414 907.079895,330.047424 
	C920.846985,327.993225 934.340332,330.017914 947.784668,333.355927 
	C947.784668,337.568848 947.784668,341.679962 947.784668,346.004730 
	C941.697021,344.798218 935.899414,343.241028 930.001160,342.571655 
	C920.046936,341.442017 910.086121,341.014343 900.654236,345.723663 
	C895.243652,348.425079 893.189331,352.646057 892.896973,358.527985 
	C892.589050,364.723236 895.483582,368.920776 900.621948,370.977051 
	C908.519470,374.137451 916.760925,376.458099 924.906067,378.974609 
	C933.706299,381.693512 942.573547,384.277802 948.524292,392.038330 
	C959.935364,406.920074 954.278992,432.234161 932.090881,437.018585 
	C914.911804,440.722931 898.010559,439.641876 881.142578,434.719330 
	C881.142578,430.221619 881.142578,425.912140 881.142578,422.614594 
	C891.906799,424.065216 902.761719,425.994904 913.699158,426.793671 
	C918.730652,427.161102 924.097351,425.867645 929.002319,424.335571 
	C935.954895,422.163971 940.318298,416.182343 939.917053,409.958832 
	C939.469116,403.009674 936.538269,397.428650 929.173950,394.645233 
z"/>
<path fill="#003BBF" opacity="1.000000" stroke="none" 
	d="
M1923.014282,375.102966 
	C1919.486938,373.141724 1916.079956,370.401733 1912.539673,370.216949 
	C1901.099243,369.619812 1889.521240,369.167755 1878.283447,374.274109 
	C1878.283447,369.727570 1878.283447,365.658417 1878.283447,361.216431 
	C1892.132202,357.669281 1906.041504,355.149506 1920.506714,358.918823 
	C1932.033691,361.922485 1938.498413,368.418915 1938.859741,380.811218 
	C1939.409912,399.674469 1939.003784,418.565613 1939.003784,437.725342 
	C1935.616577,437.725342 1931.543945,437.725342 1927.377686,437.725342 
	C1927.043823,435.207886 1926.716797,432.742981 1926.346436,429.950745 
	C1912.884399,440.188263 1898.544189,441.141510 1883.585571,436.930176 
	C1874.817383,434.461639 1869.706909,426.026978 1868.850952,417.102142 
	C1867.241455,400.317505 1880.974731,390.198059 1895.309326,390.903961 
	C1905.398438,391.400787 1915.531860,391.000000 1927.152100,391.000000 
	C1925.652344,385.298187 1924.362915,380.396149 1923.014282,375.102966 
M1917.452515,402.000000 
	C1910.291382,402.000061 1903.127930,401.890228 1895.969604,402.032471 
	C1889.378418,402.163391 1883.743530,406.656525 1883.072144,412.458252 
	C1882.417358,418.114594 1883.432251,424.104828 1892.276001,426.147278 
	C1899.017334,427.704193 1905.472046,427.225952 1911.976807,425.067657 
	C1924.115601,421.039978 1927.937744,414.638245 1925.318726,402.000000 
	C1923.058105,402.000000 1920.746216,402.000000 1917.452515,402.000000 
z"/>
<path fill="#003BBF" opacity="1.000000" stroke="none" 
	d="
M819.256897,434.886292 
	C803.889526,440.987640 788.627014,440.620483 773.716309,435.699310 
	C761.918701,431.805573 756.485596,421.681610 754.222717,410.178467 
	C752.316833,400.490509 752.488770,390.563721 755.518616,381.049591 
	C759.784851,367.652710 768.386230,359.505798 783.083435,357.792664 
	C791.265503,356.838928 798.833557,357.388306 806.619629,359.835449 
	C817.612549,363.290527 824.025269,374.181091 824.876221,383.584015 
	C825.501648,390.494812 824.998840,397.507751 824.998840,404.900574 
	C805.916504,404.900574 787.162598,404.900574 768.441589,404.900574 
	C767.748291,415.635681 774.843628,424.425201 784.805664,426.035858 
	C796.661987,427.952728 808.297607,427.626190 819.670593,423.375519 
	C819.670593,427.239594 819.670593,430.997650 819.256897,434.886292 
M787.803223,369.000366 
	C772.840393,371.689423 766.343872,380.005676 768.542725,393.748108 
	C782.903809,393.748108 797.275818,393.748108 812.000000,393.748108 
	C812.000000,391.209869 812.005615,388.918671 811.999084,386.627563 
	C811.973267,377.542877 807.499634,371.941071 798.409973,370.041992 
	C795.243896,369.380524 791.950256,369.329681 787.803223,369.000366 
z"/>
<path fill="#003BBF" opacity="1.000000" stroke="none" 
	d="
M1213.263428,393.436707 
	C1214.966797,387.108063 1215.935181,380.990021 1218.074463,375.313141 
	C1221.847412,365.301331 1229.957031,360.086823 1240.124878,358.086761 
	C1249.054688,356.330231 1257.826904,356.709259 1266.632568,359.812988 
	C1277.900513,363.784546 1283.013550,372.448730 1284.780762,383.121796 
	C1285.930176,390.063171 1284.997314,397.349304 1284.997314,404.903229 
	C1265.912842,404.903229 1247.161743,404.903229 1228.443481,404.903229 
	C1227.742798,415.621185 1234.845337,424.442657 1244.798462,426.032135 
	C1256.646606,427.924164 1268.286499,427.648254 1280.000000,423.253479 
	C1280.000000,424.584900 1279.997192,425.688416 1280.000488,426.791901 
	C1280.024536,434.828613 1280.160889,435.478790 1272.289062,437.124634 
	C1256.869629,440.348572 1241.478882,441.092621 1227.325317,432.051117 
	C1218.759521,426.579163 1215.744141,417.869324 1214.097290,408.596588 
	C1213.239990,403.770294 1213.371094,398.768524 1213.263428,393.436707 
M1270.969971,379.968567 
	C1267.077759,368.518921 1251.384521,366.842865 1239.305542,371.009186 
	C1231.781738,373.604279 1226.796143,384.147461 1228.595947,393.710571 
	C1242.973633,393.710571 1257.351318,393.710571 1272.432739,393.710571 
	C1271.934814,389.174225 1271.475464,384.989136 1270.969971,379.968567 
z"/>
<path fill="#003BBF" opacity="1.000000" stroke="none" 
	d="
M1042.994385,361.224609 
	C1042.999146,386.980988 1042.999146,412.257294 1042.999146,437.765808 
	C1038.533325,437.765808 1034.463135,437.765808 1030.026611,437.765808 
	C1030.026611,435.154297 1030.026611,432.731506 1030.026611,430.708740 
	C1022.944763,433.313171 1016.237427,436.650055 1009.140747,438.172516 
	C999.987061,440.136322 990.653564,440.036560 982.145447,434.705414 
	C974.266174,429.768372 971.500427,421.812897 971.201721,413.538574 
	C970.553711,395.592133 971.001892,377.606140 971.001892,359.318665 
	C975.952454,359.318665 980.681396,359.318665 985.759705,359.318665 
	C985.837524,360.696747 985.987793,362.135681 985.989380,363.574707 
	C986.006226,379.398315 985.995117,395.221924 986.001831,411.045532 
	C986.005676,420.027954 990.490845,425.782898 999.303528,426.888397 
	C1009.550232,428.173798 1019.189941,426.095398 1027.179077,419.112823 
	C1028.387939,418.056274 1028.910034,415.659821 1028.923950,413.876678 
	C1029.052734,397.387787 1029.000000,380.897522 1029.000000,364.407654 
	C1029.000000,362.772369 1029.000000,361.137054 1029.000000,359.009705 
	C1033.275391,359.009705 1037.222778,358.933594 1041.161377,359.087372 
	C1041.791382,359.111969 1042.381226,360.166290 1042.994385,361.224609 
z"/>
<path fill="#003BBF" opacity="1.000000" stroke="none" 
	d="
M2006.425049,437.555969 
	C2006.093384,411.389191 2006.093384,385.567047 2006.093384,359.372498 
	C2010.178833,359.372498 2014.243774,359.372498 2018.482910,359.372498 
	C2019.009277,361.403687 2019.596680,363.670685 2020.311401,366.428925 
	C2029.932861,359.717255 2040.276123,356.445007 2051.417480,357.133026 
	C2060.183105,357.674347 2069.263672,358.906799 2074.129150,367.808197 
	C2076.019043,371.265747 2077.754639,375.341522 2077.827393,379.168640 
	C2078.196777,398.617157 2077.997559,418.076477 2077.997559,437.764679 
	C2073.332764,437.764679 2069.052734,437.764679 2064.249268,437.764679 
	C2064.173096,436.516357 2064.012695,435.099762 2064.010986,433.682983 
	C2063.992920,418.852325 2064.063477,404.021149 2063.951904,389.191345 
	C2063.926270,385.775665 2063.667480,382.276062 2062.872070,378.970001 
	C2061.320557,372.522156 2056.064209,369.933380 2050.255615,369.250946 
	C2040.216064,368.071503 2030.673218,370.004639 2022.837891,376.866669 
	C2021.260010,378.248474 2020.150269,381.026825 2020.121338,383.178619 
	C2019.900269,399.672699 2020.000000,416.171051 2020.000000,432.668091 
	C2020.000000,434.298706 2020.000000,435.929291 2020.000000,437.900604 
	C2015.324097,437.900604 2011.040405,437.900604 2006.425049,437.555969 
z"/>
<path fill="#003BBF" opacity="1.000000" stroke="none" 
	d="
M1573.947754,360.265442 
	C1573.989746,386.355530 1573.989746,411.966431 1573.989746,437.787415 
	C1569.624146,437.787415 1565.680176,437.787415 1561.479980,437.787415 
	C1560.946777,435.431610 1560.388062,432.962494 1559.991089,431.207855 
	C1552.969849,433.674561 1546.080200,437.289612 1538.810181,438.387878 
	C1525.707764,440.367218 1513.382446,440.032806 1506.223877,427.474304 
	C1503.911133,423.416901 1502.307373,418.383728 1502.186768,413.749847 
	C1501.727539,396.101288 1502.004395,378.433502 1502.022705,360.772919 
	C1502.023193,360.312256 1502.212769,359.851807 1502.354126,359.209839 
	C1506.718628,359.209839 1510.999268,359.209839 1515.748535,359.209839 
	C1515.828491,360.537384 1515.987061,361.961456 1515.988770,363.385712 
	C1516.006958,378.213959 1515.967163,393.042267 1516.010376,407.870392 
	C1516.044556,419.601990 1522.094116,427.622498 1535.215820,427.221130 
	C1543.674683,426.962372 1550.791992,424.207184 1557.449707,419.735596 
	C1558.942383,418.733124 1559.868408,415.874390 1559.891846,413.856689 
	C1560.083862,397.364624 1560.000000,380.869293 1560.000000,364.374969 
	C1560.000000,362.746094 1560.000000,361.117218 1560.000000,358.675110 
	C1564.911621,359.067566 1569.408691,359.426910 1573.947754,360.265442 
z"/>
<path fill="#003BBF" opacity="1.000000" stroke="none" 
	d="
M1314.944580,399.031952 
	C1299.038086,392.479095 1294.220337,374.347412 1305.713013,364.101288 
	C1309.127930,361.056854 1314.124146,359.188995 1318.704834,358.167236 
	C1330.103516,355.624603 1341.458862,357.172729 1352.807861,360.338715 
	C1352.807861,364.407776 1352.807861,368.525726 1352.807861,372.086273 
	C1344.987915,371.384735 1337.279663,370.523529 1329.547363,370.084076 
	C1326.502197,369.911011 1323.024048,369.926727 1320.436035,371.231262 
	C1317.855103,372.532196 1315.085205,375.276550 1314.391235,377.912781 
	C1313.859253,379.933380 1315.780029,383.872833 1317.744629,385.027313 
	C1322.688354,387.932281 1328.283081,389.723450 1333.600342,391.999573 
	C1339.802368,394.654266 1346.213867,396.934845 1352.106689,400.159668 
	C1356.764771,402.708832 1358.881104,407.400513 1359.021973,412.871521 
	C1359.215088,420.370850 1359.830078,428.342865 1352.388794,432.812134 
	C1347.533813,435.728210 1341.788452,438.268341 1336.257202,438.721344 
	C1324.864502,439.654388 1313.288574,439.651001 1302.246704,435.559021 
	C1302.246704,431.363403 1302.246704,427.262024 1302.246704,423.687347 
	C1310.953491,424.807220 1319.454468,426.380341 1328.011597,426.795258 
	C1332.177490,426.997284 1336.713257,425.635590 1340.608521,423.912262 
	C1346.285156,421.400757 1347.011963,413.149628 1341.569458,410.118042 
	C1334.868652,406.385468 1327.408691,404.014679 1320.274292,401.061432 
	C1318.633545,400.382233 1316.982300,399.727661 1314.944580,399.031952 
z"/>
<path fill="#003BBF" opacity="1.000000" stroke="none" 
	d="
M1387.247559,373.270081 
	C1383.247559,380.082062 1384.433228,384.114838 1391.471802,387.011322 
	C1400.713867,390.814545 1410.140991,394.165527 1419.426025,397.867767 
	C1433.431641,403.452301 1432.894775,426.111664 1423.874756,432.285889 
	C1418.998901,435.623474 1412.783691,438.192871 1406.961182,438.705170 
	C1395.723755,439.693939 1384.253662,439.809448 1373.181763,435.493713 
	C1373.181763,431.522369 1373.181763,427.400482 1373.181763,423.609253 
	C1381.320312,424.752502 1389.296021,426.126984 1397.330078,426.884308 
	C1400.851807,427.216309 1404.549683,426.573242 1408.064575,425.862732 
	C1412.715576,424.922424 1415.071655,421.436920 1415.908325,417.023102 
	C1416.513428,413.830750 1412.380981,408.591522 1408.305054,407.113586 
	C1400.720093,404.363220 1393.144531,401.577362 1385.492065,399.024689 
	C1370.056030,393.875610 1368.296875,382.012482 1372.698486,369.079071 
	C1375.163696,361.835510 1382.527710,359.422760 1389.542236,358.083069 
	C1401.008911,355.893097 1412.359375,357.242615 1423.781250,360.261292 
	C1423.781250,364.299072 1423.781250,368.416809 1423.781250,372.048462 
	C1415.201782,371.363251 1406.673096,370.319550 1398.129272,370.174622 
	C1394.612671,370.114929 1391.063232,371.989471 1387.247559,373.270081 
z"/>
<path fill="#003BBF" opacity="1.000000" stroke="none" 
	d="
M1473.086304,324.000000 
	C1477.309692,324.311127 1481.058228,324.901794 1484.798828,324.855286 
	C1488.597290,324.808014 1489.260864,326.709412 1489.032471,329.859894 
	C1488.866211,332.153015 1489.000000,334.467865 1489.000000,335.991943 
	C1483.513550,335.991943 1478.409912,335.582520 1473.400146,336.093414 
	C1466.822754,336.764099 1464.273804,339.986053 1464.025024,346.852936 
	C1463.886841,350.666443 1464.000122,354.489044 1464.000122,358.763306 
	C1470.879639,358.763306 1477.615845,358.763306 1484.020142,358.763306 
	C1484.541260,359.469055 1484.891113,359.721832 1484.894653,359.979340 
	C1485.083618,373.679657 1486.151611,370.680725 1474.463257,370.986847 
	C1471.164307,371.073242 1467.861084,371.000000 1464.126465,371.000000 
	C1464.126465,393.346893 1464.126465,415.396912 1464.126465,437.721466 
	C1459.302124,437.721466 1454.907959,437.721466 1450.072998,437.721466 
	C1450.072998,415.599884 1450.072998,393.548828 1450.072998,371.047729 
	C1445.919067,371.047729 1442.174927,371.047729 1438.226562,371.047729 
	C1438.226562,366.990723 1438.226562,363.375610 1438.226562,359.306824 
	C1441.818604,359.306824 1445.554565,359.306824 1450.000000,359.306824 
	C1450.000000,354.787079 1450.211548,350.690552 1449.959961,346.622650 
	C1449.238647,334.960114 1457.751343,322.663635 1473.086304,324.000000 
z"/>
<path fill="#003BBF" opacity="1.000000" stroke="none" 
	d="
M1092.557617,438.797668 
	C1077.648804,435.877441 1067.225952,428.302063 1063.886108,413.367981 
	C1060.155640,396.687836 1059.775024,380.129028 1073.527466,367.395355 
	C1078.137573,363.126770 1084.839355,360.561981 1091.029541,358.682373 
	C1100.911499,355.681824 1111.020020,356.709625 1121.029419,359.382629 
	C1125.929321,360.691132 1127.838867,363.195618 1127.036499,368.098969 
	C1126.800049,369.543427 1127.000000,371.059265 1127.000000,373.024139 
	C1122.176758,371.844788 1117.769897,370.463257 1113.257690,369.723358 
	C1101.630371,367.816650 1090.629639,369.055328 1082.280518,378.433960 
	C1080.041504,380.949097 1078.376343,384.524048 1077.777832,387.851715 
	C1075.680420,399.513428 1074.295410,411.592255 1084.353638,420.462006 
	C1088.201172,423.854858 1094.061401,426.444183 1099.121338,426.660126 
	C1108.253418,427.049896 1117.473633,425.377960 1126.997925,424.536957 
	C1126.997925,426.360931 1127.663574,429.691956 1126.761841,432.523987 
	C1126.169434,434.384399 1123.433472,436.584473 1121.452515,436.806610 
	C1112.000122,437.866760 1102.477661,438.302368 1092.557617,438.797668 
z"/>
<path fill="#003BBF" opacity="1.000000" stroke="none" 
	d="
M1152.206299,404.453674 
	C1153.834595,412.118896 1155.686401,419.389801 1162.817627,423.091614 
	C1166.719604,425.117096 1171.359375,426.820740 1175.646851,426.776337 
	C1184.665405,426.682922 1193.671143,425.341095 1202.999512,424.482422 
	C1202.999512,426.205627 1203.293579,429.205353 1202.871948,432.100861 
	C1202.670410,433.484589 1201.352905,435.446503 1200.129761,435.827667 
	C1185.877319,440.269409 1171.432495,440.933655 1157.353516,435.590027 
	C1147.405884,431.814453 1141.720947,423.378662 1139.406494,413.467438 
	C1136.898438,402.726837 1136.709229,391.615936 1140.088379,380.867432 
	C1143.387207,370.374207 1150.983154,363.731537 1161.004395,360.120178 
	C1172.846313,355.852692 1184.948608,356.110016 1197.074585,359.455688 
	C1200.744263,360.468231 1202.786621,361.972717 1202.063110,366.145630 
	C1201.700439,368.236603 1202.000000,370.442413 1202.000000,371.944641 
	C1194.330566,370.946686 1186.873413,369.507263 1179.363403,369.134705 
	C1172.248169,368.781738 1165.399292,371.030548 1159.977661,375.704803 
	C1154.085449,380.784882 1152.803833,388.202911 1152.049072,395.548218 
	C1151.761353,398.347748 1152.027588,401.204224 1152.206299,404.453674 
z"/>
<path fill="#003BBF" opacity="1.000000" stroke="none" 
	d="
M1596.000000,368.000000 
	C1596.000000,353.875854 1596.000000,340.251740 1596.000000,326.314453 
	C1600.624023,326.314453 1605.016724,326.314453 1610.000000,326.314453 
	C1610.000000,328.035248 1610.000000,329.800903 1610.000000,331.566528 
	C1610.000000,359.187744 1610.000000,386.808929 1610.000000,414.430145 
	C1610.000000,415.428497 1609.885132,416.442719 1610.019409,417.422729 
	C1611.165283,425.789734 1613.619995,429.018829 1622.104126,426.075775 
	C1622.829468,425.824188 1623.717651,426.042450 1624.765137,426.042450 
	C1624.765137,429.842316 1624.765137,433.466644 1624.765137,438.313080 
	C1619.377808,438.527069 1613.691895,439.382996 1608.151001,438.817261 
	C1600.839111,438.070648 1596.024048,431.215515 1596.009766,422.910492 
	C1595.978271,404.773712 1596.000000,386.636841 1596.000000,368.000000 
z"/>
<path fill="#003BBF" opacity="1.000000" stroke="none" 
	d="
M1969.000000,417.999695 
	C1969.000000,402.212189 1969.000000,386.924591 1969.000000,371.194641 
	C1965.048340,371.194641 1961.301514,371.194641 1956.973267,371.194641 
	C1957.412231,369.670074 1957.806030,368.718323 1957.951782,367.729980 
	C1959.239380,359.001892 1959.226440,359.000000 1967.973999,359.000000 
	C1973.110474,359.000000 1978.246948,359.000000 1983.690674,359.000000 
	C1983.690674,385.278107 1983.690674,411.310272 1983.690674,437.671753 
	C1979.071045,437.671753 1974.345459,437.671753 1969.000000,437.671753 
	C1969.000000,431.344757 1969.000000,424.922180 1969.000000,417.999695 
z"/>
<path fill="#003BBF" opacity="1.000000" stroke="none" 
	d="
M1972.138428,328.000061 
	C1976.234985,328.000000 1979.851440,328.000000 1983.731934,328.000000 
	C1983.731934,332.705078 1983.731934,337.087280 1983.731934,341.736908 
	C1978.620483,341.736908 1973.573853,341.736908 1968.000244,341.736908 
	C1968.000244,338.249603 1968.203125,334.804413 1967.939697,331.395294 
	C1967.705322,328.362976 1969.035034,327.615417 1972.138428,328.000061 
z"/>
<path fill="#FFFFFF" opacity="1.000000" stroke="none" 
	d="
M350.662567,41.274563 
	C367.253265,48.932018 382.073608,58.704071 396.147400,69.669243 
	C401.094818,73.523865 401.085022,74.323845 396.660095,78.861191 
	C385.642914,90.158386 374.587921,101.420578 363.704834,112.846115 
	C355.724884,121.223755 347.971039,129.817688 340.174164,138.367905 
	C338.952789,139.707321 338.038910,141.327179 336.817139,143.051193 
	C307.917145,114.663170 274.169189,97.051788 237.582870,84.695358 
	C242.104767,63.945854 246.619476,43.229328 251.198654,22.217051 
	C285.375549,20.146425 318.566193,26.825869 350.662567,41.274563 
z"/>
<path fill="#FFFFFF" opacity="1.000000" stroke="none" 
	d="
M475.000000,228.925674 
	C474.997772,231.240448 475.368744,233.184326 474.868286,234.869415 
	C474.506409,236.087952 473.106750,237.695999 471.966553,237.881699 
	C452.796967,241.003891 434.044189,245.609619 416.007446,252.922867 
	C415.722321,253.038483 415.349304,252.937332 414.646576,252.937332 
	C399.693756,217.329086 379.109802,185.201675 351.435791,156.785355 
	C372.872223,134.205078 394.263855,111.671989 416.215759,88.548729 
	C452.011505,128.477737 473.268372,174.300446 475.000000,228.925674 
z"/>
<path fill="#FFFFFF" opacity="1.000000" stroke="none" 
	d="
M354.731750,191.216690 
	C363.675995,204.083237 372.881653,216.376007 380.890991,229.404266 
	C387.094391,239.494873 391.801514,250.505356 397.265381,261.287689 
	C387.343567,267.457672 377.585663,272.978638 368.434998,279.369171 
	C359.178650,285.833588 350.523438,293.158783 341.069916,300.523743 
	C339.252930,299.002686 336.825500,297.209564 334.674408,295.130524 
	C322.130463,283.006683 309.700989,270.764191 297.131317,258.667297 
	C289.846466,251.656418 282.371216,244.843323 274.636414,237.618729 
	C295.698792,215.493362 316.452423,193.692352 337.633881,171.441910 
	C343.498535,178.237442 348.988281,184.598526 354.731750,191.216690 
z"/>
<path fill="#FFFFFF" opacity="1.000000" stroke="none" 
	d="
M297.322144,137.713867 
	C305.786224,144.194550 313.950775,150.461807 323.263062,157.610123 
	C320.968414,159.323807 319.222778,160.308792 317.875275,161.683945 
	C306.492981,173.299774 295.101257,184.908585 283.881012,196.680237 
	C276.480896,204.444000 269.426453,212.537384 262.018311,220.293198 
	C261.186035,221.164505 258.568451,221.515991 257.620209,220.871155 
	C254.649704,218.851196 251.976562,216.348160 249.376068,213.837708 
	C237.316299,202.195618 225.344879,190.462051 213.290451,178.814407 
	C207.220520,172.949326 201.089737,167.144821 194.884918,161.423065 
	C192.719604,159.426315 192.912506,158.156662 194.642181,155.672989 
	C203.942169,142.319016 212.908752,128.732330 221.942154,115.193764 
	C223.292923,113.169350 224.453583,111.008965 225.590042,108.852364 
	C229.204086,101.994225 229.107834,102.174278 236.451614,105.089729 
	C257.881165,113.597176 278.283295,123.984489 297.322144,137.713867 
z"/>
<path fill="#FFFFFF" opacity="1.000000" stroke="none" 
	d="
M454.879913,261.949860 
	C461.301971,260.531403 467.305054,259.150757 474.437897,257.510284 
	C470.283630,296.630432 459.504852,332.329498 435.260345,363.397125 
	C436.666779,332.564026 431.853394,302.733002 421.672699,272.520325 
	C432.648254,268.994598 443.554596,265.491119 454.879913,261.949860 
z"/>
<path fill="#FFFFFF" opacity="1.000000" stroke="none" 
	d="
M128.664520,65.720711 
	C159.053925,44.400734 191.785950,29.659174 229.154343,23.574133 
	C228.008652,42.917736 222.463425,60.470322 216.443390,78.111847 
	C186.813797,70.627243 157.010574,66.403625 126.136017,67.656975 
	C126.999710,66.987206 127.680313,66.459419 128.664520,65.720711 
z"/>
<path fill="#FFFFFF" opacity="1.000000" stroke="none" 
	d="
M390.788269,288.724884 
	C395.052368,286.299713 399.050049,284.134583 403.718903,281.605988 
	C412.700714,310.796295 416.287628,340.233368 414.764618,370.739502 
	C409.155853,365.653900 403.710022,360.947174 398.525299,355.968567 
	C386.315369,344.244080 374.216980,332.403168 362.099701,320.582550 
	C356.113342,314.742798 356.014465,313.897491 362.708862,308.895844 
	C371.840942,302.072906 381.238281,295.605011 390.788269,288.724884 
z"/>
<path fill="#FFFFFF" opacity="1.000000" stroke="none" 
	d="
M202.743744,107.766586 
	C194.552643,120.532181 186.621323,133.026443 178.447876,145.902145 
	C157.728775,126.206619 138.056091,107.505814 118.270569,88.697746 
	C135.691620,85.133789 198.590317,90.971886 208.372894,97.238655 
	C206.601593,100.622223 204.802567,104.058731 202.743744,107.766586 
z"/>
<path fill="#FFFFFF" opacity="1.000000" stroke="none" 
	d="
M897.000000,200.759735 
	C898.209534,207.872131 892.317688,208.987350 888.572388,210.866287 
	C883.626831,213.347305 878.206970,215.083115 872.212891,213.161911 
	C865.442688,210.991943 862.031860,207.545868 862.536987,202.011581 
	C863.088196,195.973206 867.254272,191.471344 873.724426,191.109604 
	C881.321838,190.684814 888.961243,191.010132 897.000000,191.010132 
	C897.000000,194.382599 897.000000,197.341125 897.000000,200.759735 
z"/>
<path fill="#FFFFFF" opacity="1.000000" stroke="none" 
	d="
M1243.307129,207.193146 
	C1238.171753,209.569504 1233.481079,212.253403 1228.433716,213.627396 
	C1223.467896,214.979172 1218.021973,214.249512 1214.202393,210.471420 
	C1210.806396,207.112442 1210.015259,202.673874 1211.907471,197.806015 
	C1213.921143,192.625519 1218.270996,191.820984 1222.794800,191.012161 
	C1223.279053,190.925568 1223.792358,191.000015 1224.292114,191.000015 
	C1231.282715,190.999985 1238.273438,191.000000 1246.152710,191.000000 
	C1244.842896,196.413773 1248.463135,202.118698 1243.307129,207.193146 
z"/>
<path fill="#FFFFFF" opacity="1.000000" stroke="none" 
	d="
M1853.584961,212.982208 
	C1849.351562,213.004608 1845.489258,213.401352 1841.732178,212.940308 
	C1833.657715,211.949509 1832.291016,207.811172 1832.140137,201.900116 
	C1831.989502,195.991623 1837.279541,191.226227 1843.520874,191.051880 
	C1851.133789,190.839218 1858.757080,191.001282 1866.351685,191.001282 
	C1867.621948,204.892853 1868.308228,205.594940 1859.606445,210.059494 
	C1857.734253,211.020065 1855.870972,211.997864 1853.584961,212.982208 
z"/>
<path fill="#FFFFFF" opacity="1.000000" stroke="none" 
	d="
M1545.619873,196.899414 
	C1548.077026,193.023224 1551.436035,191.172943 1555.468506,191.062088 
	C1563.099487,190.852310 1570.740479,191.001434 1579.071777,191.001434 
	C1578.098389,197.129425 1581.808716,203.893890 1575.047241,208.389313 
	C1567.447144,213.442291 1559.288452,216.097794 1550.355469,212.044296 
	C1544.998291,209.613388 1543.915283,205.948303 1545.619873,196.899414 
z"/>
<path fill="#FFFFFF" opacity="1.000000" stroke="none" 
	d="
M676.056335,426.000000 
	C673.255005,426.000000 670.944763,426.000000 668.318115,426.000000 
	C668.318115,413.391327 668.318115,401.008270 668.318115,388.927704 
	C680.743286,388.927704 693.244812,388.666504 705.724182,389.078339 
	C709.747864,389.211151 714.304565,390.221863 717.582825,392.393066 
	C724.550598,397.007751 724.764954,407.400970 721.931946,416.478943 
	C719.956116,422.809814 713.997314,425.998138 705.497437,425.999603 
	C695.847412,426.001251 686.197388,426.000000 676.056335,426.000000 
z"/>
<path fill="#FFFFFF" opacity="1.000000" stroke="none" 
	d="
M720.000000,359.095947 
	C721.010376,370.488892 713.803223,377.660980 702.322327,377.116364 
	C691.062134,376.582214 679.756836,377.000000 668.237366,377.000000 
	C668.237366,365.215607 668.237366,353.823730 668.237366,343.015594 
	C681.806274,343.015594 695.183777,342.663361 708.529053,343.166138 
	C715.072449,343.412689 719.876099,350.715515 720.000000,359.095947 
z"/>
<path fill="#FFFFFF" opacity="1.000000" stroke="none" 
	d="
M1809.265137,369.925720 
	C1816.475586,367.144470 1823.515381,367.444366 1830.320923,369.292633 
	C1834.561157,370.444153 1838.541016,373.013580 1839.039429,378.192169 
	C1839.493530,382.911682 1840.283691,387.757935 1839.657837,392.376465 
	C1839.063232,396.764160 1835.522583,400.235321 1831.119507,400.753052 
	C1824.883057,401.486328 1818.365967,401.872955 1812.220947,400.867157 
	C1802.948364,399.349426 1798.103760,390.644012 1800.157227,381.558563 
	C1801.339478,376.327698 1803.735962,372.178955 1809.265137,369.925720 
z"/>
<path fill="#FFFFFF" opacity="1.000000" stroke="none" 
	d="
M1711.026855,373.135101 
	C1714.536865,363.927155 1718.019043,355.119446 1721.923218,345.244629 
	C1728.611694,362.827667 1734.997314,379.614746 1741.541016,396.817383 
	C1728.142578,396.817383 1715.508057,396.817383 1702.404175,396.817383 
	C1705.281860,389.022064 1708.140503,381.278717 1711.026855,373.135101 
z"/>
<path fill="#FFFFFF" opacity="1.000000" stroke="none" 
	d="
M1917.943481,402.000000 
	C1920.746216,402.000000 1923.058105,402.000000 1925.318726,402.000000 
	C1927.937744,414.638245 1924.115601,421.039978 1911.976807,425.067657 
	C1905.472046,427.225952 1899.017334,427.704193 1892.276001,426.147278 
	C1883.432251,424.104828 1882.417358,418.114594 1883.072144,412.458252 
	C1883.743530,406.656525 1889.378418,402.163391 1895.969604,402.032471 
	C1903.127930,401.890228 1910.291382,402.000061 1917.943481,402.000000 
z"/>
<path fill="#FFFFFF" opacity="1.000000" stroke="none" 
	d="
M788.259033,369.000183 
	C791.950256,369.329681 795.243896,369.380524 798.409973,370.041992 
	C807.499634,371.941071 811.973267,377.542877 811.999084,386.627563 
	C812.005615,388.918671 812.000000,391.209869 812.000000,393.748108 
	C797.275818,393.748108 782.903809,393.748108 768.542725,393.748108 
	C766.343872,380.005676 772.840393,371.689423 788.259033,369.000183 
z"/>
<path fill="#FFFFFF" opacity="1.000000" stroke="none" 
	d="
M1270.993042,380.386292 
	C1271.475464,384.989136 1271.934814,389.174225 1272.432739,393.710571 
	C1257.351318,393.710571 1242.973633,393.710571 1228.595093,393.717102 
	C1226.796143,384.147461 1231.781738,373.604279 1239.305542,371.009186 
	C1251.384521,366.842865 1267.077759,368.518921 1270.993042,380.386292 
z"/>
</svg>